<?xml version="1.0" standalone="no"?>
<!DOCTYPE svg PUBLIC "-//W3C//DTD SVG 20010904//EN"
 "http://www.w3.org/TR/2001/REC-SVG-20010904/DTD/svg10.dtd">
<svg version="1.0" xmlns="http://www.w3.org/2000/svg"
 width="1456.000000pt" height="247.000000pt" viewBox="0 0 1456.000000 247.000000"
 preserveAspectRatio="xMidYMid meet">

<g transform="translate(0.000000,247.000000) scale(0.100000,-0.100000)"
fill="#000000" stroke="none">
<path d="M11195 2120 c-220 -3 -393 -8 -385 -13 8 -4 58 -6 110 -4 99 4 124 1
114 -14 -3 -5 20 -9 50 -9 43 0 56 3 56 15 0 8 5 15 10 15 6 0 13 -7 16 -15 8
-20 124 -22 124 -1 0 9 8 12 25 8 14 -2 22 -8 19 -13 -3 -5 12 -9 33 -9 21 0
33 -4 26 -8 -6 -4 -146 -7 -310 -7 -273 0 -301 2 -327 18 -27 18 -28 18 -41 0
-12 -16 -30 -18 -159 -18 -80 -1 -147 -3 -150 -6 -3 -2 -6 -161 -7 -352 -1
-191 -6 -350 -10 -353 -5 -3 -9 10 -9 29 0 40 -8 51 -27 36 -17 -14 -17 -33 0
-23 9 6 9 5 1 -7 -7 -8 -14 -23 -17 -34 -2 -11 -5 107 -6 263 0 157 -5 282
-10 282 -5 0 -16 -18 -25 -40 -14 -36 -16 -112 -16 -635 l0 -595 195 0 194 0
41 59 40 60 0 430 0 431 90 0 90 0 0 -485 0 -485 118 0 c66 0 153 -3 194 -6
l75 -7 49 64 49 64 3 427 3 428 82 0 82 0 -3 -485 -2 -485 197 1 198 0 48 59
47 58 0 646 c0 460 -3 652 -11 670 -22 47 -70 56 -277 54 -103 -2 -367 -5
-587 -8z m-125 -20 c0 -5 -4 -10 -10 -10 -5 0 -10 5 -10 10 0 6 5 10 10 10 6
0 10 -4 10 -10z m735 -32 c3 -3 -80 -6 -186 -6 -188 -1 -249 11 -92 16 43 2
79 4 80 5 4 5 193 -9 198 -15z m-1065 2 c0 -5 -5 -10 -11 -10 -5 0 -7 5 -4 10
3 6 8 10 11 10 2 0 4 -4 4 -10z m1210 1 c45 -8 45 -9 -20 -10 -36 0 -72 4 -80
9 -19 12 34 12 100 1z m-887 -323 c-8 -71 -23 -85 -23 -22 0 41 12 74 27 74 1
0 -1 -24 -4 -52z m671 -5 c-3 -162 -7 -213 -16 -213 -6 0 -8 33 -4 85 3 46 2
86 -2 89 -13 8 -8 62 7 80 7 9 14 16 15 16 1 0 1 -26 0 -57z m-1017 -120 c-3
-10 -5 -4 -5 12 0 17 2 24 5 18 2 -7 2 -21 0 -30z m336 -13 c3 -11 1 -18 -4
-14 -5 3 -9 12 -9 20 0 20 7 17 13 -6z m972 -29 c3 -5 2 -12 -3 -15 -5 -3 -9
1 -9 9 0 17 3 19 12 6z m-965 -72 c0 -6 -4 -7 -10 -4 -5 3 -10 11 -10 16 0 6
5 7 10 4 6 -3 10 -11 10 -16z m607 -11 c-3 -8 -6 -5 -6 6 -1 11 2 17 5 13 3
-3 4 -12 1 -19z m63 -8 c0 -5 -2 -10 -4 -10 -3 0 -8 5 -11 10 -3 6 -1 10 4 10
6 0 11 -4 11 -10z m-676 -15 c-4 -8 -8 -15 -10 -15 -2 0 -4 7 -4 15 0 8 4 15
10 15 5 0 7 -7 4 -15z m-337 -37 c-3 -8 -6 -5 -6 6 -1 11 2 17 5 13 3 -3 4
-12 1 -19z m0 -120 c-2 -18 -4 -4 -4 32 0 36 2 50 4 33 2 -18 2 -48 0 -65z
m1013 56 c0 -8 -4 -12 -10 -9 -5 3 -10 10 -10 16 0 5 5 9 10 9 6 0 10 -7 10
-16z m-681 -37 c0 -21 -1 -21 -9 -2 -12 28 -12 37 0 30 6 -3 10 -16 9 -28z
m-687 1 c-7 -7 -12 -8 -12 -2 0 14 12 26 19 19 2 -3 -1 -11 -7 -17z m635 -20
c-3 -8 -6 -5 -6 6 -1 11 2 17 5 13 3 -3 4 -12 1 -19z m-610 -25 c-3 -10 -5 -4
-5 12 0 17 2 24 5 18 2 -7 2 -21 0 -30z m-42 18 c3 -5 2 -12 -3 -15 -5 -3 -9
1 -9 9 0 17 3 19 12 6z m1687 -39 c3 -21 2 -56 -2 -77 -4 -22 -8 -32 -9 -22 0
9 -7 17 -13 17 -10 0 -10 2 0 9 11 6 10 11 -3 25 -9 9 -12 16 -7 16 5 0 10 11
11 25 3 47 4 54 11 50 4 -3 10 -22 12 -43z m-985 16 c-3 -8 -6 -5 -6 6 -1 11
2 17 5 13 3 -3 4 -12 1 -19z m-704 -28 c3 -11 2 -22 -2 -24 -4 -3 -8 6 -9 20
-2 29 4 31 11 4z m374 -57 c-2 -16 -4 -3 -4 27 0 30 2 43 4 28 2 -16 2 -40 0
-55z m-380 -15 c-3 -8 -6 -5 -6 6 -1 11 2 17 5 13 3 -3 4 -12 1 -19z m48 -65
c-10 -66 -17 -46 -8 23 4 32 9 51 11 40 2 -10 1 -38 -3 -63z m335 -78 c0 -69
-4 -125 -9 -125 -5 0 -7 26 -6 58 3 51 2 55 -11 38 -18 -26 -18 -9 1 28 14 26
14 30 -2 43 -17 14 -17 14 0 9 13 -4 17 0 17 17 0 18 -2 19 -11 7 -9 -13 -10
-13 -5 0 3 8 9 23 12 33 4 9 8 17 10 17 2 0 4 -56 4 -125z m-383 93 c-3 -8 -6
-5 -6 6 -1 11 2 17 5 13 3 -3 4 -12 1 -19z m1690 -95 c-3 -10 -5 -4 -5 12 0
17 2 24 5 18 2 -7 2 -21 0 -30z m-1637 -10 c0 -32 -5 -28 -14 10 -4 19 -3 26
4 22 5 -3 10 -18 10 -32z m-50 -93 c0 -77 -4 -120 -11 -120 -6 0 -8 21 -5 58
2 31 5 85 5 120 1 34 3 62 6 62 3 0 5 -54 5 -120z m1684 -18 c-5 -82 -15 -77
-13 7 1 40 5 67 9 60 5 -7 6 -37 4 -67z m-1636 43 c-3 -3 -9 2 -12 12 -6 14
-5 15 5 6 7 -7 10 -15 7 -18z m127 -45 c10 -11 16 -20 13 -20 -3 0 -13 9 -23
20 -10 11 -16 20 -13 20 3 0 13 -9 23 -20z m202 -32 c-3 -8 -6 -5 -6 6 -1 11
2 17 5 13 3 -3 4 -12 1 -19z m-87 -39 c0 -4 -8 -7 -18 -6 -10 0 -19 6 -19 13
0 6 9 9 19 6 10 -2 18 -8 18 -13z m1305 -31 c6 -4 -6 -7 -25 -7 -19 1 -27 3
-17 6 9 2 17 9 17 15 0 7 3 7 8 2 4 -5 12 -12 17 -16z m85 7 c0 -8 -4 -15 -10
-15 -5 0 -7 7 -4 15 4 8 8 15 10 15 2 0 4 -7 4 -15z m-1394 -7 c5 -7 3 -8 -6
-3 -7 4 -15 2 -20 -5 -5 -8 -9 -7 -13 4 -8 19 28 23 39 4z m94 -3 c0 -11 -10
-15 -37 -13 -37 1 -37 1 -5 5 17 2 32 8 32 14 0 5 2 9 5 9 3 0 5 -7 5 -15z
m953 -35 c3 -11 1 -23 -4 -26 -5 -3 -9 6 -9 20 0 31 6 34 13 6z m38 7 c-7 -7
-14 -8 -21 -1 -6 6 -2 10 12 11 16 2 18 -1 9 -10z m-714 -34 c-3 -10 -5 -4 -5
12 0 17 2 24 5 18 2 -7 2 -21 0 -30z"/>
<path d="M12248 2105 c19 -24 20 -38 14 -362 -4 -294 -7 -339 -21 -350 -9 -6
-13 -15 -8 -19 4 -4 7 -2 7 5 0 7 5 9 10 6 6 -3 10 -42 10 -87 0 -71 -2 -79
-15 -68 -13 11 -14 10 -9 -4 3 -9 10 -16 15 -16 5 0 9 -13 9 -30 0 -19 -5 -30
-14 -30 -19 0 -29 -17 -19 -32 4 -7 6 -22 5 -33 -2 -17 -1 -18 8 -5 10 13 11
13 7 -1 -3 -9 0 -22 6 -28 9 -9 8 -11 -5 -6 -23 9 -24 -17 -3 -49 9 -13 13
-31 9 -40 -6 -15 -8 -15 -20 2 -7 10 -13 28 -14 38 -7 179 -5 472 3 467 6 -4
7 -1 1 8 -4 8 -9 136 -9 284 -1 188 -4 276 -13 290 -6 11 -12 15 -12 8 0 -6
-6 -18 -12 -25 -7 -7 -22 -27 -34 -43 -21 -30 -21 -39 -25 -685 l-4 -655 430
3 430 4 61 61 c61 61 62 64 118 228 61 180 61 179 45 179 -5 0 -7 -4 -4 -10 3
-6 -4 -10 -17 -10 -13 0 -29 -5 -36 -12 -7 -7 -12 -8 -12 -2 0 6 10 16 23 22
20 10 18 11 -18 11 -22 0 -35 -3 -28 -7 7 -4 9 -13 4 -21 -7 -11 -12 -10 -32
1 -13 7 -27 18 -31 23 -5 7 -8 7 -8 0 0 -5 -5 -3 -10 5 -8 12 -10 10 -10 -8 0
-13 4 -20 10 -17 6 3 10 2 10 -4 0 -5 -9 -9 -19 -8 -11 0 -18 4 -15 8 2 4 -4
13 -12 20 -12 10 -63 15 -188 17 -94 2 -177 5 -184 7 -9 3 -12 18 -10 42 l3
38 197 5 197 5 55 62 56 61 0 122 0 121 -122 1 c-68 1 -180 2 -250 2 -115 1
-128 3 -128 19 0 16 15 17 178 17 l177 0 60 68 c49 53 67 84 92 152 64 175 93
257 93 263 0 4 -135 7 -300 7 -204 0 -300 -3 -300 -11 0 -5 5 -7 10 -4 6 4 17
1 25 -5 8 -7 23 -9 32 -6 17 7 17 6 2 -9 -34 -35 -156 -22 -191 20 -15 17 -19
18 -27 5 -9 -12 -11 -12 -16 2 -8 21 -45 20 -38 -2 4 -12 1 -11 -10 3 -8 9
-24 17 -35 17 -20 0 -20 -2 -6 -27 7 -16 14 -31 14 -35 0 -12 -39 4 -45 19 -5
13 -3 14 10 3 14 -12 15 -11 4 13 -11 24 -17 27 -66 27 l-54 0 19 -25z m252
-25 c0 -5 -17 -10 -37 -9 -31 0 -34 2 -18 9 28 12 55 12 55 0z m420 -1 c14 -2
-24 -5 -85 -9 -112 -5 -146 -3 -126 9 10 6 141 6 211 0z m213 -10 c-18 -3 -45
-4 -60 0 -26 5 -25 6 12 11 54 7 93 -1 48 -11z m-138 1 c-28 -12 -37 -12 -30
0 3 6 16 10 28 9 21 0 21 -1 2 -9z m-630 -389 c-9 -8 -36 -10 -30 -2 2 4 11 8
20 8 8 0 13 -3 10 -6z m-2 -73 c-4 -18 -2 -20 6 -8 5 8 12 12 15 9 3 -2 -5
-16 -17 -30 -12 -14 -19 -20 -15 -14 4 6 3 16 -3 22 -5 5 -7 17 -3 26 9 25 23
21 17 -5z m17 -68 c0 -5 -2 -10 -4 -10 -3 0 -8 5 -11 10 -3 6 -1 10 4 10 6 0
11 -4 11 -10z m485 -8 c-3 -3 -11 0 -18 7 -9 10 -8 11 6 5 10 -3 15 -9 12 -12z
m-455 -47 c0 -5 -5 -3 -10 5 -5 8 -10 20 -10 25 0 6 5 3 10 -5 5 -8 10 -19 10
-25z m77 7 c-12 -3 -16 -9 -12 -22 3 -10 0 -22 -6 -26 -9 -5 -10 -2 -6 9 7 20
-4 22 -21 5 -9 -9 -7 -14 6 -24 14 -10 15 -15 5 -25 -11 -10 -13 -10 -13 0 0
7 -4 9 -10 6 -6 -4 -7 1 -3 11 4 12 3 15 -5 10 -8 -5 -10 -1 -5 10 5 13 3 15
-7 9 -9 -5 -11 -4 -6 4 4 6 12 9 17 5 5 -3 17 0 25 7 12 10 12 14 2 22 -10 6
-8 7 4 3 10 -3 20 -1 23 5 4 5 12 6 18 2 8 -5 6 -9 -6 -11z m36 -72 c-3 -12
-8 -19 -11 -16 -5 6 5 36 12 36 2 0 2 -9 -1 -20z m58 3 c13 -16 12 -17 -3 -4
-10 7 -18 15 -18 17 0 8 8 3 21 -13z m-85 -18 c5 -19 10 -23 19 -15 6 5 15 7
19 3 4 -4 4 1 1 12 -6 17 -4 17 14 -3 16 -19 18 -28 10 -43 -5 -11 -6 -19 -2
-18 22 4 30 -4 30 -30 0 -25 -2 -27 -14 -15 -8 8 -12 18 -8 24 3 6 -1 7 -9 4
-11 -4 -16 0 -16 10 0 9 -5 16 -11 16 -5 0 -7 -5 -3 -12 5 -7 3 -8 -5 -3 -9 5
-10 10 -2 18 19 19 12 31 -8 13 -11 -10 -25 -15 -30 -11 -14 8 -14 0 0 -28
l10 -22 -19 22 -20 22 -6 -21 c-3 -12 -7 -20 -10 -17 -3 3 1 23 9 44 8 22 14
34 15 27 0 -7 5 -10 10 -7 6 3 10 1 10 -5 0 -6 5 -8 12 -4 7 5 5 11 -7 21 -12
8 -14 13 -6 13 11 0 11 3 1 15 -8 10 -9 15 -1 15 6 0 13 -11 17 -25z m10 -111
c-4 -9 -9 -15 -11 -12 -3 3 -3 13 1 22 4 9 9 15 11 12 3 -3 3 -13 -1 -22z m59
-14 c-3 -5 1 -10 9 -10 13 0 16 -14 16 -82 0 -46 3 -99 6 -119 6 -35 5 -36
-22 -36 -22 0 -25 2 -13 11 17 13 24 186 8 186 -6 0 -7 -5 -3 -12 4 -6 3 -8
-3 -5 -6 4 -9 21 -7 39 3 40 3 38 10 38 3 0 2 -4 -1 -10z m-65 -14 c0 -2 -7
-7 -16 -10 -8 -3 -12 -2 -9 4 6 10 25 14 25 6z m-75 -67 c4 -6 13 -8 21 -5 8
3 14 4 14 2 0 -3 3 -11 6 -20 3 -9 1 -16 -6 -16 -6 0 -8 5 -5 10 3 6 1 10 -5
10 -6 0 -8 -11 -6 -25 3 -14 0 -25 -5 -25 -12 0 -31 48 -24 60 3 5 -1 11 -7
13 -9 4 -10 6 -1 6 6 1 15 -4 18 -10z m114 -16 c-8 -21 -6 -24 9 -19 12 4 19
1 19 -8 0 -9 -5 -12 -10 -9 -6 4 -8 0 -4 -10 4 -11 2 -14 -8 -11 -24 10 -34
81 -11 81 11 0 12 -6 5 -24z m-210 -47 c-15 -13 -49 -25 -49 -17 0 5 8 12 18
14 24 6 36 8 31 3z m151 -7 c0 -5 4 -8 10 -4 5 3 5 -7 -1 -25 -6 -16 -16 -30
-22 -30 -6 0 -7 -3 -4 -7 7 -6 55 38 50 44 -2 2 -3 8 -3 14 0 5 13 2 30 -8 17
-9 30 -21 30 -25 0 -4 -13 -15 -30 -25 -16 -9 -30 -21 -30 -26 0 -5 7 -4 15 3
14 12 15 10 11 -13 -4 -25 -3 -26 16 -16 16 9 23 7 38 -9 10 -11 16 -24 12
-28 -4 -5 1 -2 11 5 9 8 20 11 24 7 3 -3 1 -6 -6 -6 -13 0 -11 -31 2 -41 4 -3
-2 -17 -13 -31 l-20 -26 23 5 c12 3 29 10 37 16 8 5 2 -3 -15 -19 -18 -16 -23
-25 -12 -21 11 4 20 1 23 -8 4 -8 10 -12 16 -9 5 3 7 13 3 23 -3 9 6 3 20 -13
29 -33 32 -28 9 15 -12 24 -13 34 -3 45 9 11 8 18 -2 31 -8 9 -9 14 -3 10 7
-4 9 5 6 26 -4 26 -3 30 9 21 8 -6 31 -14 52 -18 20 -4 37 -12 37 -18 0 -5 -7
-8 -15 -4 -13 5 -16 -2 -15 -29 1 -3 -6 -13 -15 -21 -22 -22 -19 -34 9 -34 14
0 28 -5 32 -12 4 -7 3 -8 -4 -4 -7 4 -12 5 -12 2 0 -2 -3 -13 -6 -23 -4 -11
-3 -14 3 -7 5 8 31 9 78 4 71 -6 71 -14 3 -24 -27 -4 -38 -2 -38 7 0 8 -3 9
-8 1 -5 -7 -95 -11 -274 -13 -252 -1 -268 0 -265 16 1 10 6 24 10 31 5 6 4 12
-2 12 -10 0 -9 19 2 38 5 7 3 12 -4 12 -7 0 -9 3 -6 6 4 4 13 1 22 -6 9 -7 18
-10 22 -6 3 3 1 6 -6 6 -9 0 -9 5 -1 21 10 19 10 20 -9 10 -28 -15 -33 -14
-26 8 3 10 6 40 7 66 0 26 4 42 8 35 4 -7 13 -2 25 16 13 20 19 23 25 13 6 -8
2 -18 -8 -26 -10 -7 -12 -13 -5 -13 6 0 19 7 28 17 14 13 18 14 25 3 5 -8 6
-18 3 -24 -4 -5 1 -7 10 -3 11 4 14 2 10 -9 -3 -8 -12 -13 -19 -10 -8 3 -14 1
-14 -4 0 -6 7 -10 15 -10 9 0 18 -7 21 -15 7 -17 34 -21 34 -5 0 6 -7 10 -16
10 -13 0 -11 6 9 24 14 13 23 26 21 29 -3 3 1 18 10 35 11 22 12 32 3 41 -8 8
-8 11 1 11 7 0 12 -5 12 -11z m-220 -9 c0 -5 -2 -10 -4 -10 -3 0 -8 5 -11 10
-3 6 -1 10 4 10 6 0 11 -4 11 -10z m154 -6 c3 -8 2 -12 -4 -9 -6 3 -10 10 -10
16 0 14 7 11 14 -7z m39 -9 c-3 -9 -8 -14 -10 -11 -3 3 -2 9 2 15 9 16 15 13
8 -4z m525 -7 c18 -15 15 -27 -6 -25 -10 0 -26 12 -36 25 -18 24 -18 24 5 17
13 -4 30 -12 37 -17z m-678 -8 c0 -5 -4 -10 -10 -10 -5 0 -10 5 -10 10 0 6 5
10 10 10 6 0 10 -4 10 -10z m430 -20 l-25 -7 25 -11 c27 -12 27 -12 -8 -16
-12 -2 -27 3 -33 11 -9 10 -8 13 2 14 8 1 3 5 -11 9 -20 6 -14 8 25 8 38 0 44
-2 25 -8z m110 6 c0 -2 -11 -6 -25 -8 -14 -3 -25 -1 -25 3 0 5 11 9 25 9 14 0
25 -2 25 -4z m-30 -76 c0 -5 -7 -10 -16 -10 -8 0 -12 5 -9 10 3 6 10 10 16 10
5 0 9 -4 9 -10z m-122 -25 c-3 -3 -9 2 -12 12 -6 14 -5 15 5 6 7 -7 10 -15 7
-18z m-3 -45 c3 -6 -1 -7 -9 -4 -18 7 -21 14 -7 14 6 0 13 -4 16 -10z m151
-15 c16 -16 7 -19 -20 -9 -18 7 -22 24 -5 24 6 0 17 -7 25 -15z m-597 -8 c8
-10 7 -14 -4 -14 -8 0 -16 6 -19 14 -3 7 -2 13 3 13 5 0 14 -6 20 -13z m571
-17 c11 -7 5 -8 -20 -4 -43 8 -51 14 -19 14 13 0 31 -5 39 -10z m-579 -19 c8
12 11 11 19 -1 17 -26 11 -66 -12 -88 l-23 -21 -2 62 c-1 34 1 56 4 48 5 -11
7 -11 14 0z"/>
<path d="M12534 1102 c3 -5 0 -13 -6 -15 -8 -3 -6 -6 5 -6 19 -1 23 14 5 25
-6 4 -8 3 -4 -4z"/>
<path d="M12461 1001 c-8 -5 -10 -14 -6 -21 5 -8 4 -11 -1 -7 -14 8 -38 -9
-30 -22 11 -17 55 17 53 40 -1 10 -1 19 -2 19 0 0 -6 -4 -14 -9z"/>
<path d="M12310 976 c4 -4 16 -4 26 2 16 9 14 10 -8 9 -15 -1 -23 -6 -18 -11z"/>
<path d="M12350 956 c0 -2 7 -7 16 -10 8 -3 12 -2 9 4 -6 10 -25 14 -25 6z"/>
<path d="M12470 939 c0 -5 -4 -8 -9 -4 -5 3 -12 1 -15 -4 -4 -5 2 -8 11 -6 10
2 21 4 26 4 11 1 8 21 -3 21 -5 0 -10 -5 -10 -11z"/>
<path d="M12510 939 c0 -5 5 -7 10 -4 6 3 10 8 10 11 0 2 -4 4 -10 4 -5 0 -10
-5 -10 -11z"/>
<path d="M12497 900 c-9 -11 -13 -20 -8 -20 11 0 35 29 29 35 -2 2 -12 -4 -21
-15z"/>
<path d="M12554 899 c-19 -22 -19 -22 4 -8 12 8 22 17 22 21 0 12 -6 9 -26
-13z"/>
<path d="M12355 879 c-4 -6 -5 -12 -2 -15 2 -3 7 2 10 11 7 17 1 20 -8 4z"/>
<path d="M12445 880 c3 -5 8 -10 11 -10 2 0 4 5 4 10 0 6 -5 10 -11 10 -5 0
-7 -4 -4 -10z"/>
<path d="M12730 855 c0 -8 5 -15 10 -15 6 0 10 7 10 15 0 8 -4 15 -10 15 -5 0
-10 -7 -10 -15z"/>
<path d="M12519 843 c-13 -16 -12 -17 4 -4 16 13 21 21 13 21 -2 0 -10 -8 -17
-17z"/>
<path d="M13398 2110 c20 -19 22 -31 23 -138 0 -64 0 -135 0 -157 -3 -108 -12
-284 -15 -313 -2 -17 0 -34 4 -37 12 -7 12 -212 1 -234 -6 -10 -7 -21 -4 -25
11 -11 12 -57 1 -50 -5 3 -8 14 -5 24 2 9 -4 22 -14 29 -21 13 -26 2 -7 -17 9
-9 9 -12 -1 -12 -8 0 -3 -10 12 -24 14 -13 23 -27 20 -30 -4 -3 -1 -6 5 -6 6
0 9 -6 6 -14 -3 -8 -12 -12 -20 -9 -9 3 -14 -1 -14 -12 0 -10 5 -15 13 -12 11
4 14 -12 15 -70 0 -41 -4 -85 -9 -97 -8 -18 -9 -18 -4 6 3 17 -1 32 -11 42 -8
9 -11 16 -5 16 6 0 11 7 11 16 0 8 -4 13 -8 10 -5 -3 -6 9 -4 27 4 27 6 29 13
12 4 -11 8 -14 8 -6 1 7 -10 24 -23 36 -21 20 -23 30 -24 121 0 58 3 91 8 79
4 -11 6 -23 3 -27 -2 -5 2 -8 10 -8 8 0 17 7 20 14 4 10 1 13 -7 10 -16 -6
-17 28 -2 39 7 5 3 7 -10 4 -17 -3 -20 1 -22 29 -2 28 1 34 17 34 10 0 21 8
23 18 6 24 -2 53 -12 47 -4 -3 -6 -13 -3 -24 3 -11 -2 -21 -11 -24 -10 -4 -16
-1 -16 9 0 8 4 13 9 9 10 -6 9 34 -1 51 -4 5 -4 81 -2 169 5 209 4 435 -2 458
-8 26 -18 21 -66 -35 l-45 -53 -7 -667 -7 -668 199 0 198 0 57 58 57 58 0 84
c0 88 7 130 20 130 4 0 54 -64 110 -142 153 -212 107 -188 356 -188 l212 0 56
46 56 45 0 205 c0 112 -3 204 -7 204 -4 0 -33 -26 -65 -57 -32 -31 -59 -55
-61 -52 -10 12 -107 182 -107 187 0 4 32 35 70 70 39 35 76 76 84 90 11 21 14
102 16 357 2 182 2 336 1 343 -4 37 -51 40 -591 41 l-524 1 22 -20z m492 -34
c0 -11 -19 -15 -25 -6 -3 5 1 10 9 10 9 0 16 -2 16 -4z m45 -6 c3 -5 -3 -10
-14 -10 -12 0 -21 5 -21 10 0 6 6 10 14 10 8 0 18 -4 21 -10z m82 4 c-3 -3
-12 -4 -19 -1 -8 3 -5 6 6 6 11 1 17 -2 13 -5z m58 -4 c-27 -12 -43 -12 -25 0
8 5 22 9 30 9 10 0 8 -3 -5 -9z m233 3 c-27 -2 -69 -2 -95 0 -27 2 -5 3 47 3
52 0 74 -1 48 -3z m110 0 c-10 -2 -28 -2 -40 0 -13 2 -5 4 17 4 22 1 32 -1 23
-4z m-308 -348 c-4 -38 -5 -74 -2 -80 6 -9 10 -175 5 -175 -1 0 -14 12 -28 27
-18 20 -25 39 -25 69 0 22 3 44 7 48 4 4 6 25 4 47 -1 22 3 47 9 54 7 8 10 25
7 37 -4 14 0 26 11 34 9 7 18 12 19 11 0 -1 -2 -33 -7 -72z m200 -39 c0 -3 -4
-8 -10 -11 -5 -3 -10 -1 -10 4 0 6 5 11 10 11 6 0 10 -2 10 -4z m-400 -121 l0
-46 -67 3 -68 3 -3 43 -3 42 70 0 71 0 0 -45z m400 -26 c0 -6 -4 -7 -10 -4 -5
3 -10 11 -10 16 0 6 5 7 10 4 6 -3 10 -11 10 -16z m110 -39 c0 -5 -5 -10 -11
-10 -5 0 -7 5 -4 10 3 6 8 10 11 10 2 0 4 -4 4 -10z m-41 -43 c-2 -1 -13 -9
-24 -17 -19 -14 -19 -14 -6 3 7 9 18 17 24 17 6 0 8 -1 6 -3z m9 -42 c-3 -3
-9 2 -12 12 -6 14 -5 15 5 6 7 -7 10 -15 7 -18z m-55 -380 c-3 -9 -8 -14 -10
-11 -3 3 -2 9 2 15 9 16 15 13 8 -4z m70 2 c3 -7 -3 -13 -14 -13 -13 0 -15 3
-7 13 6 7 12 13 13 13 2 0 5 -6 8 -13z m-133 -37 c0 -5 -5 -10 -11 -10 -5 0
-7 5 -4 10 3 6 8 10 11 10 2 0 4 -4 4 -10z m60 -11 c0 -6 -6 -7 -12 -3 -10 6
-9 3 0 -8 16 -20 38 -14 53 13 5 11 18 18 27 17 23 -4 55 -45 46 -59 -4 -8 -3
-9 4 -5 13 8 36 -30 28 -49 -3 -9 0 -12 10 -8 7 3 14 0 14 -6 0 -12 -20 -14
-43 -5 -9 3 -13 13 -10 27 5 22 5 22 -10 2 -13 -17 -18 -18 -29 -6 -7 8 -8 11
-2 8 7 -4 12 3 12 19 0 20 -4 25 -20 21 -15 -4 -17 -2 -9 7 6 7 9 16 6 20 -3
3 1 2 7 -4 21 -18 28 -11 11 10 -16 18 -19 18 -33 5 -8 -9 -15 -23 -16 -33 -1
-27 -15 -52 -25 -46 -5 3 -9 1 -9 -5 0 -20 19 -21 30 -1 6 11 15 20 20 20 22
0 -16 -39 -51 -53 -31 -12 -37 -13 -32 -1 3 8 9 11 14 8 5 -3 9 -1 9 5 0 20
-20 21 -32 1 -13 -21 -38 -27 -38 -9 0 5 4 8 9 4 6 -3 15 4 21 15 6 11 8 20 5
20 -3 0 6 10 21 23 24 21 25 25 10 30 -10 4 -15 3 -11 -3 9 -14 -29 -30 -46
-19 -11 7 -11 9 5 9 12 0 16 5 12 15 -3 9 0 15 8 15 8 0 17 7 20 16 6 16 26
11 26 -7z m-129 -12 c-10 -9 -11 -8 -5 6 3 10 9 15 12 12 3 -3 0 -11 -7 -18z
m44 -7 c3 -5 1 -10 -4 -10 -6 0 -11 5 -11 10 0 6 2 10 4 10 3 0 8 -4 11 -10z
m-124 -67 c13 -16 12 -17 -3 -4 -10 7 -18 15 -18 17 0 8 8 3 21 -13z m146 -2
c0 -11 -4 -18 -8 -15 -4 2 -12 -3 -17 -12 -9 -16 -11 -16 -33 1 -13 9 -17 15
-9 13 8 -3 26 3 39 13 29 23 30 23 28 0z m-872 -100 c3 -5 1 -12 -5 -16 -5 -3
-10 1 -10 9 0 18 6 21 15 7z m785 -5 c0 -3 -4 -8 -10 -11 -5 -3 -10 -1 -10 4
0 6 5 11 10 11 6 0 10 -2 10 -4z"/>
<path d="M14329 934 c-22 -25 -22 -26 -3 -16 12 6 24 18 28 27 8 21 3 19 -25
-11z"/>
<path d="M1468 2100 c-2 -8 -1 -324 2 -703 l5 -687 58 -65 59 -65 206 2 207 3
5 263 5 262 209 -266 210 -267 104 7 c58 3 250 6 426 6 l322 0 17 58 c10 31
53 167 97 302 43 135 96 298 116 363 21 64 40 117 44 117 5 0 131 -319 130
-332 0 -5 -47 -8 -104 -8 l-103 0 -17 -58 c-8 -32 -31 -118 -51 -192 l-34
-134 35 -58 35 -58 414 0 414 0 -40 112 c-23 62 -45 124 -49 138 -5 14 -36
101 -69 194 -34 93 -61 171 -61 173 0 2 -4 2 -9 -1 -5 -3 -12 1 -15 10 -9 24
-7 31 5 14 9 -12 10 -12 5 3 -3 10 -6 24 -6 30 0 6 -8 0 -17 -13 -17 -25 -33
-40 -44 -40 -3 0 -12 19 -20 43 -25 79 -66 167 -73 160 -4 -4 -4 0 -1 8 3 9
-21 87 -53 175 -32 87 -62 173 -65 189 l-7 30 15 -25 c19 -33 19 -12 0 33 -19
46 -19 58 1 50 13 -5 15 -3 6 13 -6 11 -20 49 -32 84 -12 36 -26 69 -31 75 -5
5 -9 17 -9 28 0 10 -5 15 -10 12 -6 -4 -8 -11 -4 -16 3 -5 0 -16 -6 -24 -9
-11 -15 -12 -24 -2 -9 8 -59 12 -169 12 -86 0 -157 3 -157 8 0 7 141 13 270
11 62 -1 89 11 90 39 0 10 -361 8 -397 -2 -23 -6 -49 -66 -259 -591 -128 -322
-238 -596 -244 -610 -11 -24 -12 -24 -86 55 -41 43 -74 74 -74 68 0 -6 -7 -13
-15 -17 -8 -3 -14 0 -12 7 1 7 -2 11 -8 10 -5 0 -16 5 -23 13 -9 10 -9 14 -1
14 23 0 -40 40 -68 43 -27 3 -73 33 -73 48 0 4 16 -1 35 -9 19 -9 35 -20 35
-25 0 -4 4 -5 10 -2 5 3 -2 17 -17 31 -29 27 -38 31 -27 12 4 -7 -2 -4 -13 7
-11 11 -19 27 -17 35 1 8 3 24 3 35 1 15 13 7 59 -38 57 -56 58 -57 116 -57
47 0 66 5 91 24 50 39 55 72 55 395 0 285 -1 293 -22 331 -13 22 -26 40 -29
40 -13 0 -19 -67 -19 -216 0 -140 -2 -154 -17 -154 -15 0 -16 -2 -3 -10 10 -6
16 -28 18 -62 3 -66 -5 -101 -20 -92 -7 5 -9 0 -6 -14 4 -12 2 -20 -3 -16 -5
3 -9 -5 -10 -18 -2 -45 -20 45 -20 102 0 30 0 57 1 60 2 3 2 9 1 14 -2 8 -10
371 -11 487 0 14 -7 34 -16 45 -8 10 -13 15 -11 9 6 -12 -209 -13 -220 -1 -4
5 2 6 15 3 12 -3 22 -1 22 4 0 5 11 7 25 3 34 -9 147 6 120 16 -19 7 -19 7 0
18 15 9 -113 11 -537 9 -487 -2 -557 -4 -560 -17z m707 -26 c168 -2 165 -2
165 -11 0 -5 -104 -9 -231 -9 -161 -1 -228 1 -220 9 6 6 26 10 46 9 19 -1 45
2 57 7 13 5 28 6 33 2 6 -3 73 -7 150 -7z m195 -15 c0 -6 -4 -7 -10 -4 -5 3
-10 11 -10 16 0 6 5 7 10 4 6 -3 10 -11 10 -16z m1331 -65 c5 -15 8 -29 5 -31
-2 -2 -8 10 -14 26 -13 38 -5 41 9 5z m33 -58 c8 3 16 -4 19 -17 8 -32 0 -37
-12 -8 -9 21 -10 22 -11 4 l-1 -20 -9 20 c-5 11 -9 25 -9 30 1 6 3 5 5 -2 3
-7 11 -10 18 -7z m26 -111 c0 -5 -5 -3 -10 5 -5 8 -10 20 -10 25 0 6 5 3 10
-5 5 -8 10 -19 10 -25z m-1860 -213 c0 -105 -2 -118 -22 -139 -12 -13 -16 -23
-10 -23 6 0 13 4 16 9 7 11 138 3 150 -9 5 -5 -35 -9 -97 -8 l-107 1 0 169 0
169 35 -27 35 -26 0 -116z m-300 148 c0 -5 -2 -10 -4 -10 -3 0 -8 5 -11 10 -3
6 -1 10 4 10 6 0 11 -4 11 -10z m1879 -50 l-1 -25 -8 25 c-4 14 -8 32 -9 40
-1 13 0 13 9 0 5 -8 9 -26 9 -40z m-54 -191 c-9 -24 -17 -51 -19 -59 -8 -54
-40 -171 -47 -176 -5 -3 -9 -16 -9 -30 0 -13 -5 -24 -11 -24 -5 0 -8 -4 -4 -9
3 -5 1 -13 -5 -16 -7 -4 -7 -11 -2 -18 5 -7 12 -21 16 -31 5 -16 4 -17 -9 -6
-9 7 -19 9 -23 5 -4 -4 -2 -10 5 -12 7 -2 9 -11 6 -19 -3 -8 -1 -14 5 -14 7 0
6 -19 -2 -53 -16 -67 -25 -82 -39 -68 -6 6 -15 11 -21 11 -5 0 -2 -6 9 -13 12
-10 15 -18 9 -28 -5 -8 -9 -18 -9 -23 0 -5 -6 -11 -14 -14 -14 -5 -14 -3 6 46
3 6 -1 12 -8 12 -7 0 -9 -3 -6 -6 3 -4 2 -15 -4 -26 -7 -13 -7 -23 0 -32 6 -6
8 -22 4 -34 -5 -21 -6 -21 -19 -5 -14 20 -14 4 1 -31 5 -12 3 -21 -6 -27 -16
-10 -39 -12 -39 -3 0 8 20 82 28 104 7 20 12 42 14 62 1 9 6 14 10 12 4 -3 8
4 8 15 0 11 5 23 10 26 6 3 10 1 10 -5 0 -6 5 -8 11 -4 8 4 3 12 -12 20 -13 7
-18 13 -11 14 6 0 12 6 12 13 0 7 7 22 16 33 13 16 15 16 10 2 -3 -10 -2 -20
3 -22 10 -7 10 26 0 40 -5 6 1 42 15 85 12 41 34 112 49 159 63 207 72 233 75
214 2 -12 -4 -41 -13 -65z m-1225 15 l0 -44 -95 0 -95 0 0 45 0 44 88 3 c48 2
90 2 95 0 4 -2 7 -23 7 -48z m5 -74 c3 -5 1 -10 -4 -10 -6 0 -11 5 -11 10 0 6
2 10 4 10 3 0 8 -4 11 -10z m-35 -10 c-8 -5 -19 -10 -25 -10 -5 0 -3 5 5 10 8
5 20 10 25 10 6 0 3 -5 -5 -10z m-296 -180 c-4 -8 -6 -27 -5 -42 1 -15 -3 -30
-9 -33 -7 -4 -7 -12 0 -25 14 -26 13 -57 -2 -63 -8 -3 -6 -6 5 -6 11 -1 17 -9
17 -23 0 -18 -2 -20 -10 -8 -5 8 -12 11 -17 7 -9 -9 17 -28 32 -23 6 2 11 -61
13 -172 3 -158 2 -174 -12 -163 -9 7 -13 17 -10 22 3 5 2 9 -3 8 -19 -3 -33 2
-33 12 0 6 8 8 18 5 16 -6 16 -5 -1 8 -19 15 -13 51 7 39 6 -3 4 2 -5 13 -17
20 -15 49 3 38 6 -4 5 -10 -3 -15 -11 -7 -11 -9 2 -9 9 0 20 7 23 16 4 9 2 13
-5 8 -8 -5 -10 3 -7 25 2 17 1 31 -4 31 -7 0 -12 -15 -9 -32 0 -5 -2 -8 -7 -8
-4 0 -8 23 -9 50 -1 28 3 48 7 45 5 -3 11 -1 15 5 3 5 0 10 -7 10 -15 0 -19
20 -19 99 1 48 -1 52 -16 40 -14 -12 -16 -12 -9 0 5 8 3 17 -5 23 -10 7 -8 8
7 3 18 -5 22 -1 26 27 6 35 2 136 -6 178 -3 14 6 3 19 -25 14 -27 22 -57 19
-65z m766 106 c0 -3 -4 -8 -10 -11 -5 -3 -10 -1 -10 4 0 6 5 11 10 11 6 0 10
-2 10 -4z m-867 -26 c-3 -12 -8 -19 -11 -16 -5 6 5 36 12 36 2 0 2 -9 -1 -20z
m-140 -31 c11 9 17 7 28 -6 12 -15 12 -16 -3 -10 -12 4 -15 2 -11 -9 3 -8 0
-21 -7 -29 -9 -11 -8 -14 8 -12 13 1 18 7 15 22 -2 11 -1 14 3 8 3 -7 10 -13
15 -13 6 0 8 4 5 9 -3 4 4 17 16 27 12 11 18 13 14 7 -4 -7 -9 -22 -11 -34 -2
-12 -12 -28 -22 -36 -10 -8 -12 -12 -5 -8 6 3 12 1 12 -4 0 -6 -5 -11 -10 -11
-5 0 -9 -5 -7 -11 1 -6 -4 -14 -12 -17 -9 -3 -11 0 -7 9 4 8 -1 4 -10 -8 -16
-22 -41 -33 -29 -13 3 6 -1 10 -10 10 -9 0 -13 -4 -10 -10 3 -5 -1 -10 -10
-10 -9 0 -13 5 -10 10 3 6 1 10 -4 10 -6 0 -11 9 -11 20 0 12 -9 24 -22 29
-19 7 -19 8 -4 14 10 4 15 10 12 15 -2 4 3 8 13 9 12 1 17 -5 17 -19 -1 -12 6
-23 14 -25 10 -3 11 -2 4 4 -6 4 -11 23 -12 41 0 17 -4 42 -8 55 l-6 22 25
-24 c21 -19 29 -21 40 -12z m2237 27 c0 -2 -8 -10 -17 -17 -16 -13 -17 -12 -4
4 13 16 21 21 21 13z m-2240 -16 c0 -5 -4 -10 -10 -10 -5 0 -10 5 -10 10 0 6
5 10 10 10 6 0 10 -4 10 -10z m725 -30 c29 -12 44 -24 39 -31 -3 -6 0 -15 7
-20 8 -5 9 -9 3 -9 -6 0 -17 7 -24 15 -7 8 -18 15 -24 15 -7 0 -23 11 -36 25
-28 30 -25 31 35 5z m-530 -27 c-3 -16 -11 -32 -16 -37 -5 -6 -4 5 1 25 6 18
10 35 10 36 0 2 3 3 6 3 3 0 3 -12 -1 -27z m-78 -5 c-3 -8 -6 -5 -6 6 -1 11 2
17 5 13 3 -3 4 -12 1 -19z m13 -38 c0 -15 -5 -12 -26 11 -19 22 -19 22 4 10
12 -6 22 -16 22 -21z m2190 10 c0 -5 -4 -10 -10 -10 -5 0 -10 5 -10 10 0 6 5
10 10 10 6 0 10 -4 10 -10z m-2226 -8 c3 -5 -1 -9 -9 -9 -8 0 -12 4 -9 9 3 4
7 8 9 8 2 0 6 -4 9 -8z m2126 0 c0 -5 -9 -17 -21 -28 -21 -19 -21 -19 -8 9 12
26 29 37 29 19z m-2302 -29 c1 -16 10 -34 19 -40 9 -7 12 -13 6 -13 -7 0 -15
5 -19 11 -5 8 -9 8 -14 -1 -5 -8 -6 46 -1 68 3 10 7 -3 9 -25z m877 17 c3 -5
1 -10 -4 -10 -6 0 -11 5 -11 10 0 6 2 10 4 10 3 0 8 -4 11 -10z m-716 -36
c-11 -14 -10 -18 6 -31 14 -10 15 -14 5 -13 -29 4 -50 0 -50 -10 0 -5 6 -7 13
-4 8 3 20 -3 28 -12 13 -16 12 -16 -8 -5 -19 9 -23 9 -23 -2 0 -7 6 -19 13
-26 10 -10 8 -11 -8 -5 -17 7 -18 5 -8 -8 7 -8 10 -18 6 -21 -3 -4 -1 -7 5 -7
7 0 12 -4 12 -10 0 -5 -7 -10 -16 -10 -8 0 -12 5 -9 10 3 6 0 10 -7 10 -9 0
-9 3 2 10 10 7 11 10 2 10 -8 0 -11 9 -8 25 3 13 0 27 -5 30 -5 4 -9 1 -9 -6
0 -8 -4 -8 -13 -1 -8 7 -18 7 -27 2 -19 -12 -22 -50 -4 -43 7 3 12 8 11 11 -1
4 2 8 7 10 6 1 11 -4 12 -13 1 -8 -3 -15 -9 -15 -7 0 -4 -5 6 -11 22 -13 22
-27 0 -25 -10 0 -19 -7 -21 -19 -2 -17 -1 -18 10 -5 7 9 24 14 38 13 14 -2 31
-4 37 -5 8 -1 10 -10 6 -27 -8 -37 -14 -45 -23 -31 -11 17 -44 4 -37 -14 3 -8
1 -17 -6 -19 -16 -6 59 -37 88 -37 13 0 26 6 28 13 4 9 6 9 6 0 1 -16 -7 -20
-59 -27 -27 -3 -37 -3 -26 2 16 7 17 9 4 14 -10 4 -19 -2 -28 -20 -7 -17 -8
-28 -1 -30 5 -2 7 -11 4 -20 -4 -13 -2 -12 10 3 14 18 14 21 -1 27 -9 5 3 5
28 2 53 -7 58 -10 42 -26 -17 -17 -15 -28 6 -28 13 0 14 2 3 9 -9 6 -10 11 -2
15 6 4 14 1 17 -7 9 -24 54 3 55 33 1 19 3 17 8 -10 5 -25 2 -38 -8 -44 -13
-8 -12 -10 4 -17 11 -4 -55 -8 -147 -8 l-168 0 0 59 c0 42 5 66 17 79 21 25
37 17 22 -10 -6 -12 -8 -23 -5 -26 9 -9 37 18 30 29 -3 5 0 16 8 25 7 10 8 14
1 10 -6 -4 -18 -4 -27 -1 -13 5 -14 8 -1 20 15 15 10 48 -6 38 -5 -3 -7 -10
-4 -15 4 -5 1 -9 -4 -9 -14 0 -14 17 -1 25 6 3 10 15 10 27 0 16 3 18 14 9 10
-9 15 -8 20 4 3 8 2 15 -3 15 -5 0 -8 11 -8 25 0 14 4 25 9 25 5 0 7 4 3 9 -3
6 1 13 8 18 7 4 17 16 20 26 4 10 12 15 18 11 8 -5 8 -9 -1 -14 -8 -5 -7 -9 6
-14 9 -4 22 -1 28 5 8 9 7 10 -4 5 -12 -6 -12 -5 1 6 9 7 21 23 28 36 6 12 19
22 28 22 13 0 13 -2 2 -16z m2146 7 c3 -5 2 -12 -3 -15 -5 -3 -9 1 -9 9 0 17
3 19 12 6z m-1831 -16 c3 -8 1 -15 -3 -15 -5 0 -11 7 -15 15 -3 8 -1 15 3 15
5 0 11 -7 15 -15z m1857 -8 c-10 -9 -11 -8 -5 6 3 10 9 15 12 12 3 -3 0 -11
-7 -18z m-1820 -32 c3 2 6 -5 6 -17 l2 -21 -20 21 c-22 24 -26 40 -6 23 8 -6
16 -9 18 -6z m-507 -49 c-3 -9 -10 -16 -16 -16 -5 0 -6 -4 -3 -10 3 -5 1 -10
-4 -10 -15 0 -14 12 5 38 18 26 28 24 18 -2z m2566 -81 c17 -52 28 -100 24
-106 -5 -8 -3 -9 6 -4 10 6 12 4 8 -7 -8 -19 27 -126 49 -150 23 -26 4 -22
-39 7 -20 14 -48 25 -61 25 -19 0 -28 8 -36 30 -5 17 -17 30 -27 30 -11 0 -14
5 -10 17 4 9 1 20 -6 25 -10 6 -9 8 5 9 9 1 22 2 29 3 6 0 13 7 16 14 2 7 -2
10 -12 6 -11 -4 -16 -1 -16 10 0 9 4 16 9 16 5 0 7 19 4 42 -4 29 -3 39 5 34
17 -10 15 9 -2 23 -15 12 -30 54 -16 46 4 -3 13 2 20 10 7 8 14 15 15 15 2 0
18 -43 35 -95z m-1576 69 c9 -8 16 -21 16 -27 0 -7 17 -26 37 -44 21 -17 35
-34 31 -38 -4 -4 -23 6 -43 24 -20 17 -33 31 -29 31 3 0 -6 16 -20 35 -27 35
-21 49 8 19z m984 -6 c9 -9 12 -9 12 3 1 9 7 6 21 -10 22 -26 18 -41 -6 -21
-12 10 -15 10 -15 0 0 -7 -7 -10 -15 -6 -8 3 -15 0 -16 -7 0 -7 -4 -1 -10 11
-14 36 4 55 29 30z m-1178 -38 c0 -5 -5 -10 -11 -10 -5 0 -7 5 -4 10 3 6 8 10
11 10 2 0 4 -4 4 -10z m1395 0 c-6 -10 -82 -6 -93 5 -3 3 18 5 47 5 33 0 50
-4 46 -10z m291 -22 c-23 -35 -23 -36 -1 -53 11 -9 15 -14 9 -11 -7 3 -23 -3
-37 -14 -27 -22 -66 -18 -47 5 5 6 7 15 4 18 -4 3 5 12 20 18 14 7 26 17 26
22 0 13 32 49 37 43 3 -2 -2 -15 -11 -28z m-2215 -34 c-5 -16 -10 -21 -10 -12
-1 18 10 51 15 45 2 -1 -1 -16 -5 -33z m847 18 c2 -7 -2 -10 -12 -6 -9 3 -16
11 -16 16 0 13 23 5 28 -10z m-468 -35 c0 -13 -37 11 -44 28 -5 13 -1 13 19
-2 13 -10 25 -22 25 -26z m225 33 c-3 -5 -12 -10 -18 -10 -7 0 -6 4 3 10 19
12 23 12 15 0z m-693 -66 c-21 -10 -22 -12 -7 -18 10 -3 16 -9 13 -11 -7 -7
-72 16 -80 29 -11 16 -10 28 2 21 6 -4 22 -9 36 -11 20 -4 25 -1 21 10 -9 22
3 26 22 8 16 -16 16 -18 -7 -28z m947 2 c-5 -6 -2 -17 9 -29 9 -10 17 -26 17
-35 0 -11 7 -16 20 -13 19 3 19 2 3 -15 -9 -11 -19 -30 -23 -44 -8 -32 -64
-54 -84 -33 -9 11 -4 13 28 13 40 0 59 19 44 43 -4 7 -7 25 -8 42 0 22 -4 29
-17 27 -9 -1 -20 3 -24 9 -4 8 -3 9 4 5 7 -4 12 -2 12 3 0 6 -6 11 -14 11 -8
0 -18 5 -22 12 -5 7 -3 8 7 3 12 -8 12 -6 0 8 -7 9 -11 18 -7 18 3 1 10 2 15
3 5 0 13 4 17 8 4 4 13 0 20 -10 8 -10 9 -21 3 -26z m-859 -45 c0 -4 -8 -7
-19 -7 -11 0 -17 6 -14 13 5 12 33 7 33 -6z m1927 -16 c0 -8 -4 -15 -9 -15 -4
0 -8 -10 -8 -23 0 -13 -4 -28 -10 -35 -7 -9 -7 -9 2 -2 7 6 19 10 28 10 12 0
13 -2 1 -9 -11 -7 -10 -10 5 -14 14 -3 12 -5 -6 -4 -14 0 -77 -3 -140 -7 -107
-6 -158 1 -131 18 6 4 16 4 21 1 6 -3 11 2 11 12 1 17 2 17 6 0 4 -15 12 -17
40 -14 20 3 39 11 43 18 6 8 10 7 14 -7 3 -11 4 -7 2 8 -2 22 0 26 13 19 9 -5
27 -7 41 -6 14 2 29 4 34 4 4 1 5 9 2 18 -4 10 -4 14 0 10 4 -4 13 2 21 13 17
24 20 25 20 5z m-1107 -9 c-7 -7 -13 -7 -20 0 -6 6 -3 10 10 10 13 0 16 -4 10
-10z m4 -40 c-8 -20 -21 -21 -21 -1 0 8 4 12 9 9 4 -3 8 0 8 7 0 7 2 10 5 7 3
-3 3 -13 -1 -22z m40 -3 c4 -10 4 -14 0 -10 -4 4 -13 -1 -20 -11 -13 -16 -13
-16 -14 1 0 9 5 17 11 17 5 0 7 5 4 10 -3 6 -2 10 3 10 6 0 13 -8 16 -17z m86
-40 c-10 -16 -11 -16 -6 0 3 9 1 17 -5 17 -6 0 -7 5 -3 11 4 7 10 7 16 1 7 -7
6 -16 -2 -29z m432 20 c-18 -7 -4 -23 16 -17 12 4 10 -1 -7 -15 -12 -12 -28
-18 -34 -14 -8 5 -7 8 1 11 7 2 10 8 6 13 -7 12 4 29 19 28 9 0 8 -2 -1 -6z
m866 -11 c6 -18 -15 -14 -22 4 -4 10 -1 14 6 12 6 -2 14 -10 16 -16z m-1540
-23 c-16 -10 -33 5 -23 21 5 8 11 8 21 -1 12 -10 12 -14 2 -20z m1267 21 c3
-5 1 -10 -4 -10 -6 0 -11 5 -11 10 0 6 2 10 4 10 3 0 8 -4 11 -10z m-915 -10
c0 -5 -7 -10 -16 -10 -8 0 -12 5 -9 10 3 6 10 10 16 10 5 0 9 -4 9 -10z m-436
-8 c6 -9 -92 -7 -101 2 -4 3 17 6 45 6 28 0 53 -4 56 -8z m146 4 c0 -3 -4 -8
-10 -11 -5 -3 -10 -1 -10 4 0 6 5 11 10 11 6 0 10 -2 10 -4z"/>
<path d="M3235 900 c3 -5 8 -10 11 -10 2 0 4 5 4 10 0 6 -5 10 -11 10 -5 0 -7
-4 -4 -10z"/>
<path d="M1875 1010 c3 -5 8 -10 11 -10 2 0 4 5 4 10 0 6 -5 10 -11 10 -5 0
-7 -4 -4 -10z"/>
<path d="M1866 951 c-3 -5 1 -11 9 -15 8 -3 15 -1 15 4 0 13 -18 22 -24 11z"/>
<path d="M1598 1298 c5 -5 16 -8 23 -6 8 3 3 7 -10 11 -17 4 -21 3 -13 -5z"/>
<path d="M1610 1220 c0 -11 5 -20 11 -20 5 0 7 5 4 10 -3 6 4 10 17 11 22 0
22 1 3 9 -30 13 -35 12 -35 -10z"/>
<path d="M1680 1160 c0 -5 5 -10 11 -10 5 0 7 5 4 10 -3 6 -8 10 -11 10 -2 0
-4 -4 -4 -10z"/>
<path d="M1580 1010 c0 -5 5 -10 11 -10 5 0 7 5 4 10 -3 6 -8 10 -11 10 -2 0
-4 -4 -4 -10z"/>
<path d="M1645 990 c7 -11 45 -20 45 -10 0 4 -11 10 -25 12 -13 3 -22 2 -20
-2z"/>
<path d="M1605 845 c0 -18 3 -21 13 -13 6 6 12 14 12 18 0 4 -6 10 -12 13 -8
3 -13 -4 -13 -18z"/>
<path d="M4073 855 c-5 -16 22 -44 42 -44 6 0 1 6 -10 15 -11 8 -19 22 -17 30
4 19 -7 18 -15 -1z"/>
<path d="M4130 855 c0 -5 5 -17 10 -25 5 -8 10 -10 10 -5 0 6 -5 17 -10 25 -5
8 -10 11 -10 5z"/>
<path d="M2650 941 c0 -6 5 -13 10 -16 6 -3 10 1 10 9 0 9 -4 16 -10 16 -5 0
-10 -4 -10 -9z"/>
<path d="M4270 1414 l0 -705 26 -47 c14 -26 31 -51 38 -57 8 -6 89 -9 209 -7
l197 3 0 499 0 500 109 0 109 0 4 -442 5 -443 26 -57 26 -58 196 0 196 0 -3
663 c-3 590 -5 666 -19 697 l-17 34 -12 -42 c-16 -53 -30 -45 -30 19 0 36 -5
54 -20 69 -19 19 -33 20 -489 20 l-468 0 5 25 c5 29 22 34 22 7 0 -17 9 -18
103 -17 213 3 229 4 221 18 -5 8 -2 7 10 -2 13 -11 75 -15 289 -19 244 -4 270
-3 259 11 -11 13 -9 16 15 20 15 2 -114 5 -287 7 -173 1 -406 4 -517 6 l-203
3 0 -705z m80 679 c0 -9 -25 -28 -38 -28 -12 0 -31 22 -32 35 0 4 16 4 35 2
19 -2 35 -6 35 -9z m992 -261 c-10 -37 -10 -36 -8 15 1 33 4 46 9 37 5 -9 4
-32 -1 -52z m-962 -2 c0 -5 -4 -10 -10 -10 -5 0 -10 5 -10 10 0 6 5 10 10 10
6 0 10 -4 10 -10z m274 -62 c2 -7 13 -43 25 -81 17 -55 21 -90 19 -190 -1 -67
-3 -105 -5 -84 -2 20 -8 35 -13 32 -10 -6 -7 21 3 31 10 11 8 34 -3 34 -5 0
-7 -8 -3 -17 5 -15 3 -15 -10 2 -8 10 -13 24 -11 30 3 6 -2 30 -11 54 -17 50
-21 201 -5 201 6 0 12 -6 14 -12z m683 -25 c-3 -10 -5 -4 -5 12 0 17 2 24 5
18 2 -7 2 -21 0 -30z m-957 -61 c0 -5 -7 -17 -15 -28 -14 -18 -14 -17 -4 9 12
27 19 34 19 19z m22 -24 c-7 -7 -12 -8 -12 -2 0 14 12 26 19 19 2 -3 -1 -11
-7 -17z m-64 -108 c-11 -16 -9 -26 6 -55 11 -19 16 -38 13 -42 -4 -3 -7 2 -7
13 -1 19 -1 18 -16 -1 -13 -18 -14 -17 -8 12 3 17 2 33 -5 37 -12 8 6 56 21
56 4 0 3 -9 -4 -20z m42 -60 c0 -5 -2 -10 -4 -10 -3 0 -8 5 -11 10 -3 6 -1 10
4 10 6 0 11 -4 11 -10z m-45 -60 c3 -6 -1 -7 -9 -4 -18 7 -21 14 -7 14 6 0 13
-4 16 -10z m40 0 c-3 -5 -12 -10 -18 -10 -7 0 -6 4 3 10 19 12 23 12 15 0z
m22 -32 c2 -17 0 -19 -7 -8 -5 8 -6 18 -4 22 8 12 10 10 11 -14z m-33 -26 c-1
-19 4 -32 10 -32 17 0 66 -24 66 -32 0 -9 -30 1 -49 16 -11 9 -13 7 -7 -11 4
-13 2 -24 -5 -29 -7 -4 -9 -3 -6 3 4 6 0 16 -8 23 -8 7 -15 19 -15 26 0 8 -4
14 -9 14 -5 0 -8 -11 -6 -25 1 -14 -2 -25 -6 -25 -14 0 -11 79 4 95 19 22 32
12 31 -23z m48 -7 c2 2 4 -5 5 -15 2 -25 1 -25 -28 6 -22 24 -22 26 -3 16 12
-6 23 -9 26 -7z m119 -2 c13 -16 12 -17 -3 -4 -10 7 -18 15 -18 17 0 8 8 3 21
-13z m-7 -34 c-2 -4 5 -9 16 -12 11 -3 20 -2 20 2 0 4 9 7 20 8 11 1 20 -4 20
-13 0 -25 1 -29 16 -45 12 -14 13 -18 2 -22 -10 -4 -10 -8 2 -16 13 -9 12 -11
-5 -11 -16 0 -17 -2 -6 -9 17 -11 23 -71 7 -71 -6 0 -4 -5 4 -10 8 -5 10 -10
5 -10 -12 0 -13 -46 -2 -57 4 -3 7 -16 7 -27 0 -17 -2 -18 -10 -6 -7 11 -8 2
-5 -27 2 -24 -1 -46 -7 -49 -7 -5 -5 -11 6 -20 12 -8 14 -14 5 -19 -6 -4 -14
-3 -18 3 -4 6 -10 5 -18 -3 -9 -10 -5 -14 20 -19 25 -5 29 -9 17 -16 -12 -8
-13 -13 -3 -28 9 -15 9 -22 0 -32 -9 -10 -9 -14 1 -17 6 -3 12 -11 12 -19 0
-11 -29 -14 -161 -14 l-160 0 7 203 c4 111 7 220 7 242 0 22 1 32 4 22 2 -9 8
-15 11 -13 4 2 7 -15 7 -39 0 -24 -3 -41 -7 -38 -16 9 -7 -14 10 -30 18 -16
61 -13 63 4 1 5 2 13 3 18 0 6 7 16 14 23 10 10 12 8 12 -8 0 -11 -5 -25 -11
-31 -7 -7 -2 -12 20 -15 17 -3 31 -2 32 1 0 3 2 16 5 28 3 17 0 21 -12 16 -9
-3 -13 -12 -9 -22 5 -12 3 -13 -5 -5 -9 9 -9 17 0 34 7 12 8 20 3 17 -4 -3
-18 10 -31 29 -12 19 -18 34 -12 34 5 0 10 -4 10 -9 0 -13 29 -41 42 -41 7 0
7 4 -1 13 -6 8 -7 17 -3 21 4 4 3 6 -3 4 -10 -3 -15 4 -15 23 0 5 5 7 10 4 6
-3 10 -1 10 4 0 6 -4 11 -10 11 -5 0 -10 4 -10 9 0 13 25 8 44 -8 9 -8 19 -11
23 -7 3 3 1 6 -5 6 -7 0 -12 5 -12 11 0 5 5 7 10 4 13 -8 6 34 -10 67 l-13 23
20 -20 c11 -11 19 -23 17 -26z m-118 -78 c-1 -25 -5 -36 -10 -30 -13 12 -29
12 -21 0 3 -5 2 -12 -3 -15 -4 -2 -8 4 -9 14 -1 11 3 22 8 25 5 4 6 11 3 17
-4 6 -2 8 3 5 6 -4 13 0 17 8 9 25 13 17 12 -24z m-76 19 c0 -5 -2 -10 -4 -10
-3 0 -8 5 -11 10 -3 6 -1 10 4 10 6 0 11 -4 11 -10z m1020 -90 c0 -11 -4 -20
-10 -20 -5 0 -10 9 -10 20 0 11 5 20 10 20 6 0 10 -9 10 -20z m-943 -30 c-1
-11 -7 -20 -14 -20 -11 0 -11 5 -3 20 6 11 13 20 15 20 2 0 3 -9 2 -20z m940
-82 c-3 -8 -6 -5 -6 6 -1 11 2 17 5 13 3 -3 4 -12 1 -19z m-327 -69 c0 -6 -4
-7 -10 -4 -5 3 -10 11 -10 16 0 6 5 7 10 4 6 -3 10 -11 10 -16z m10 -87 c0
-21 -2 -24 -10 -12 -13 20 -13 53 0 45 6 -3 10 -18 10 -33z m367 -139 c-2 -32
-3 -6 -3 57 0 63 1 89 3 58 2 -32 2 -84 0 -115z m-349 76 c-19 -13 -28 -11
-28 5 0 9 7 12 21 9 16 -4 17 -8 7 -14z m-8 -29 c0 -5 -2 -10 -4 -10 -3 0 -8
5 -11 10 -3 6 -1 10 4 10 6 0 11 -4 11 -10z"/>
<path d="M4530 1300 c0 -5 5 -10 11 -10 5 0 7 5 4 10 -3 6 -8 10 -11 10 -2 0
-4 -4 -4 -10z"/>
<path d="M4535 1260 c3 -5 8 -10 11 -10 2 0 4 5 4 10 0 6 -5 10 -11 10 -5 0
-7 -4 -4 -10z"/>
<path d="M4575 1261 c-3 -5 0 -13 6 -17 7 -4 9 -3 5 4 -3 5 0 13 6 15 9 4 10
6 1 6 -6 1 -14 -3 -18 -8z"/>
<path d="M4550 1229 c0 -5 9 -9 20 -9 11 0 20 2 20 4 0 2 -9 6 -20 9 -11 3
-20 1 -20 -4z"/>
<path d="M4540 1181 c0 -5 7 -14 15 -21 13 -11 13 -15 3 -21 -11 -7 -11 -9 0
-9 8 0 10 -5 6 -12 -4 -7 -4 -10 1 -6 4 4 15 2 24 -5 14 -11 15 -10 1 7 -8 10
-15 25 -17 34 -1 9 -7 18 -13 20 -5 2 -8 8 -4 13 3 5 0 9 -5 9 -6 0 -11 -4
-11 -9z"/>
<path d="M4524 1162 c4 -7 1 -12 -8 -12 -10 0 -16 -8 -15 -22 0 -16 2 -18 6
-8 4 8 13 20 21 26 12 9 12 13 2 19 -9 5 -11 4 -6 -3z"/>
<path d="M4403 1089 c9 -6 15 -14 12 -20 -4 -5 1 -9 10 -9 12 0 14 -4 5 -19
-7 -14 -6 -21 3 -24 9 -4 9 -6 0 -6 -6 -1 -15 4 -18 9 -8 13 -25 13 -25 -1 0
-5 4 -8 9 -5 5 3 11 -1 15 -9 3 -8 14 -15 25 -15 14 0 18 5 14 20 -4 14 1 22
18 29 18 7 19 10 7 10 -10 1 -18 6 -18 12 0 5 6 7 13 3 6 -4 3 1 -7 12 -11 10
-33 20 -50 21 -26 2 -28 0 -13 -8z"/>
<path d="M4575 1080 c-3 -5 -2 -10 4 -10 6 0 8 -12 5 -30 -4 -17 -2 -30 4 -30
5 0 10 18 10 40 1 38 -10 52 -23 30z"/>
<path d="M4345 1061 c-3 -6 3 -9 14 -8 11 0 17 5 15 9 -7 11 -22 10 -29 -1z"/>
<path d="M4499 1033 c-13 -16 -12 -17 4 -4 16 13 21 21 13 21 -2 0 -10 -8 -17
-17z"/>
<path d="M4458 923 c7 -3 16 -2 19 1 4 3 -2 6 -13 5 -11 0 -14 -3 -6 -6z"/>
<path d="M4585 830 c3 -5 8 -10 11 -10 2 0 4 5 4 10 0 6 -5 10 -11 10 -5 0 -7
-4 -4 -10z"/>
<path d="M9083 2113 c15 -2 39 -2 55 0 15 2 2 4 -28 4 -30 0 -43 -2 -27 -4z"/>
<path d="M9836 2112 c-3 -6 1 -13 10 -16 25 -10 62 -7 70 5 4 7 9 8 13 1 3 -6
44 -12 91 -14 47 -1 88 -7 92 -13 4 -5 7 -71 6 -145 l-2 -135 -6 130 -5 130
-532 3 -533 2 -1 -67 c-1 -38 -1 -142 -1 -233 0 -118 -2 -158 -9 -140 -6 13
-9 36 -8 50 3 56 -3 144 -9 129 -6 -14 -9 -15 -20 -3 -8 9 -9 14 -2 14 7 0 8
5 3 13 -4 6 -10 66 -13 132 l-5 120 -12 -53 c-10 -40 -13 -222 -13 -722 l0
-670 195 0 196 0 22 48 c19 42 22 67 25 230 2 100 7 182 11 182 3 0 83 -103
176 -230 l170 -230 222 0 223 0 25 50 c14 27 25 55 25 61 0 7 -56 103 -125
214 -69 111 -125 205 -125 209 0 4 14 19 30 33 38 32 75 94 106 179 23 65 24
74 24 379 0 391 16 359 -173 363 -80 2 -137 0 -141 -6z m281 -359 c-3 -10 -5
-4 -5 12 0 17 2 24 5 18 2 -7 2 -21 0 -30z m-330 4 c-2 -7 -12 -11 -21 -11 -9
1 -16 -3 -16 -9 0 -6 -3 -7 -7 -4 -3 4 -12 2 -20 -4 -14 -12 -17 -2 -7 24 7
18 77 21 71 4z m-449 -46 c7 -18 7 -33 0 -42 -8 -11 -9 -11 -5 3 3 9 3 19 -1
22 -7 7 -14 46 -8 46 2 0 9 -13 14 -29z m779 -3 c-3 -8 -6 -5 -6 6 -1 11 2 17
5 13 3 -3 4 -12 1 -19z m-323 -93 c-17 -43 -17 -46 0 -39 13 5 13 2 3 -20 -12
-25 -12 -25 -19 -3 -5 19 -6 19 -7 3 -1 -11 -4 -17 -7 -13 -8 8 27 107 37 107
5 0 1 -16 -7 -35z m17 -18 c-10 -9 -11 -8 -5 6 3 10 9 15 12 12 3 -3 0 -11 -7
-18z m-173 -34 l-3 -48 -117 -3 -118 -3 0 51 0 50 121 0 120 0 -3 -47z m-661
-30 c-3 -10 -5 -4 -5 12 0 17 2 24 5 18 2 -7 2 -21 0 -30z m62 -120 c-2 -109
-17 -95 -19 17 -2 111 -1 120 11 91 5 -13 9 -61 8 -108z m818 110 c0 -10 -4
-24 -10 -30 -5 -8 -6 -13 0 -13 5 0 15 6 22 13 10 10 11 8 5 -7 -4 -11 -2 -22
7 -28 11 -8 10 -9 -3 -4 -13 4 -18 0 -18 -16 0 -18 2 -19 17 -7 14 12 16 12
11 -1 -2 -8 -12 -15 -21 -15 -8 0 -19 -4 -23 -8 -4 -4 0 -7 9 -7 10 0 17 -4
17 -9 0 -5 -11 -8 -25 -7 -16 0 -23 6 -20 14 4 11 -7 16 -27 13 -4 0 -5 6 -2
14 7 18 20 19 30 4 4 -7 10 -7 16 -1 7 7 6 16 -6 27 -9 9 -16 13 -16 8 0 -14
-42 -35 -51 -26 -4 4 -1 23 8 40 12 26 20 32 39 29 15 -3 22 -1 18 6 -5 8 9
26 22 28 0 0 1 -8 1 -17z m-90 -15 c-3 -8 -6 -5 -6 6 -1 11 2 17 5 13 3 -3 4
-12 1 -19z m233 -28 c0 -5 -2 -10 -4 -10 -3 0 -8 5 -11 10 -3 6 -1 10 4 10 6
0 11 -4 11 -10z m120 1 c0 -6 -4 -12 -8 -15 -5 -3 -9 1 -9 9 0 8 4 15 9 15 4
0 8 -4 8 -9z m-570 -13 c36 -1 83 1 105 5 33 6 45 3 65 -14 l25 -20 -64 6
c-62 6 -65 5 -88 -22 l-24 -28 18 30 c17 27 17 29 0 22 -9 -3 -17 -2 -17 4 0
6 -6 6 -18 0 -11 -6 -52 -7 -98 -3 l-79 6 40 12 c22 7 47 11 55 9 8 -3 44 -5
80 -7z m367 -42 c-7 -17 18 -40 33 -31 5 3 10 -1 10 -10 0 -9 4 -14 9 -11 5 4
11 1 13 -5 2 -7 10 -10 17 -8 9 3 7 12 -8 31 -12 14 -21 32 -21 40 1 7 6 3 13
-10 11 -18 15 -20 27 -10 12 11 12 10 1 -4 -12 -16 -9 -22 12 -19 4 0 7 -6 7
-14 0 -22 21 -18 27 6 4 13 11 18 20 14 11 -4 13 -1 9 10 -3 9 -2 13 3 10 5
-3 12 3 14 12 4 14 5 13 6 -4 1 -12 -12 -32 -30 -47 -25 -21 -41 -26 -85 -26
-36 0 -54 4 -54 13 0 9 -2 9 -8 0 -4 -7 -23 -12 -42 -11 -19 0 -45 -2 -57 -6
-17 -6 -23 -3 -23 8 0 9 2 16 4 16 2 0 12 3 22 7 12 4 15 3 10 -5 -4 -7 -4
-12 0 -12 13 0 44 33 44 47 0 7 5 13 11 13 5 0 7 5 4 10 -3 6 -1 10 5 10 7 0
10 -6 7 -14z m37 -17 c-10 -16 -23 -9 -21 10 1 15 4 17 14 9 7 -5 10 -14 7
-19z m90 5 c3 -8 2 -12 -4 -9 -6 3 -10 10 -10 16 0 14 7 11 14 -7z m-193 -96
c11 -21 11 -22 -4 -9 -10 7 -17 17 -17 22 0 15 9 10 21 -13z m-492 -60 c0 -10
-4 -18 -10 -18 -6 0 -9 8 -6 19 2 10 0 26 -5 35 -5 9 -6 22 -1 29 7 12 19 -23
22 -65z m-323 42 c0 -12 -4 -16 -9 -11 -5 5 -6 14 -3 20 10 15 12 14 12 -9z
m863 -61 c17 -28 28 -55 25 -61 -5 -7 -2 -8 6 -3 10 6 12 4 7 -9 -4 -9 -3 -15
2 -12 5 3 53 -63 107 -146 107 -164 113 -175 94 -163 -9 5 -11 4 -6 -4 4 -6
11 -9 15 -7 4 3 18 -9 30 -25 21 -28 21 -30 5 -26 -11 3 -67 8 -126 12 -60 4
-108 11 -108 16 0 5 -10 9 -22 9 -19 0 -20 -2 -8 -10 11 -7 3 -10 -29 -10 -38
0 -43 2 -38 20 3 11 1 23 -5 26 -5 3 -13 17 -18 30 -5 13 -16 24 -24 24 -17 0
-29 27 -19 43 4 7 -2 5 -12 -3 -17 -14 -18 -13 -12 3 3 9 2 17 -2 17 -15 0
-33 62 -21 74 5 5 10 6 10 2 0 -5 8 -2 17 5 15 12 16 12 8 -1 -4 -8 10 4 33
26 22 23 43 40 45 38 2 -2 4 3 4 11 0 8 -10 15 -21 16 -18 1 -18 2 4 8 31 10
41 5 33 -14 -3 -8 0 -15 7 -15 6 0 8 5 5 10 -10 16 12 11 30 -7 14 -14 18 -14
26 -2 12 19 11 32 0 24 -6 -3 -15 4 -21 15 -6 11 -17 20 -25 20 -9 0 -12 6 -8
16 5 13 7 13 14 2 7 -10 9 -10 9 0 0 7 -11 30 -25 52 -24 38 -29 50 -21 50 1
0 17 -23 35 -51z m-29 -7 c0 -15 -2 -15 -10 -2 -13 20 -13 33 0 25 6 -3 10
-14 10 -23z m-355 8 c3 -5 1 -10 -4 -10 -6 0 -11 5 -11 10 0 6 2 10 4 10 3 0
8 -4 11 -10z m-478 -62 c-3 -7 -5 -2 -5 12 0 14 2 19 5 13 2 -7 2 -19 0 -25z
m323 0 c0 -26 -13 -16 -17 13 -2 12 1 18 7 14 5 -3 10 -16 10 -27z m218 -44
c-4 -3 -12 5 -18 18 -12 22 -12 22 6 6 10 -10 15 -20 12 -24z m242 26 c0 -5
-2 -10 -4 -10 -3 0 -8 5 -11 10 -3 6 -1 10 4 10 6 0 11 -4 11 -10z m100 -24
c14 -18 14 -19 -8 -7 -12 7 -20 17 -16 22 3 6 7 9 8 7 1 -2 8 -12 16 -22z
m-563 -28 c-3 -7 -5 -2 -5 12 0 14 2 19 5 13 2 -7 2 -19 0 -25z m443 2 c0 -5
-5 -10 -11 -10 -5 0 -7 5 -4 10 3 6 8 10 11 10 2 0 4 -4 4 -10z m23 -5 c-3 -9
-8 -14 -10 -11 -3 3 -2 9 2 15 9 16 15 13 8 -4z m-472 -92 c-8 -14 -10 -9 -10
27 1 42 1 43 10 18 7 -18 7 -33 0 -45z m379 43 c0 -2 -8 -10 -17 -17 -16 -13
-17 -12 -4 4 13 16 21 21 21 13z m-385 -146 c-3 -96 -14 -101 -14 -6 0 42 4
76 8 76 5 0 7 -32 6 -70z m409 -6 c4 -13 0 -12 -14 6 -34 41 -46 69 -18 39 14
-15 28 -35 32 -45z m31 -34 c-3 -5 -1 -10 4 -10 6 0 11 -5 11 -11 0 -8 -5 -8
-15 1 -13 11 -12 30 1 30 3 0 2 -4 -1 -10z m-555 -64 c0 -3 -4 -8 -10 -11 -5
-3 -10 -1 -10 4 0 6 5 11 10 11 6 0 10 -2 10 -4z m80 0 c0 -2 -9 -6 -20 -9
-11 -3 -18 -1 -14 4 5 9 34 13 34 5z"/>
<path d="M9800 1488 c0 -6 -8 -21 -17 -32 -13 -16 -10 -14 12 4 17 14 31 26
33 26 2 1 -4 4 -13 7 -8 4 -15 1 -15 -5z"/>
<path d="M9969 1087 c6 -8 8 -17 4 -20 -3 -4 -1 -7 5 -7 6 0 9 -6 6 -14 -6
-17 12 -31 21 -16 7 11 -25 70 -38 70 -5 0 -4 -6 2 -13z"/>
<path d="M9905 1061 c-3 -6 3 -9 14 -8 11 0 17 5 15 9 -7 11 -22 10 -29 -1z"/>
<path d="M9740 1020 c0 -5 7 -10 16 -10 12 0 15 -6 11 -21 -4 -15 -2 -18 7
-10 7 6 17 7 22 3 4 -4 2 1 -6 11 -18 24 -50 41 -50 27z"/>
<path d="M10010 1000 c-9 -6 -10 -10 -3 -10 6 0 15 5 18 10 8 12 4 12 -15 0z"/>
<path d="M9811 976 c-8 -10 -9 -16 -1 -21 10 -6 14 1 11 19 -1 5 5 6 14 2 9
-3 13 -2 10 4 -9 14 -21 12 -34 -4z"/>
<path d="M10010 949 c0 -11 27 -12 34 -1 2 4 -4 9 -15 9 -10 1 -19 -2 -19 -8z"/>
<path d="M10036 888 c-3 -7 -4 -20 -4 -28 0 -8 -3 -23 -7 -32 -6 -14 -2 -18
16 -18 13 0 32 7 42 14 17 13 17 15 -4 35 -12 11 -27 17 -32 14 -6 -4 -8 0 -4
10 3 10 4 17 1 17 -2 0 -6 -6 -8 -12z m39 -38 c3 -5 4 -10 1 -10 -2 0 -12 -3
-20 -6 -12 -5 -15 -2 -10 10 7 18 20 21 29 6z"/>
<path d="M10106 857 c3 -10 9 -15 12 -12 3 3 0 11 -7 18 -10 9 -11 8 -5 -6z"/>
<path d="M9877 832 c-15 -17 -15 -18 6 -19 12 0 16 1 9 4 -10 4 -10 8 -1 19
17 20 5 17 -14 -4z"/>
<path d="M10379 2096 c12 -13 30 -23 39 -21 9 2 25 4 35 4 32 2 7 21 -26 21
-24 0 -28 3 -17 10 11 7 7 10 -19 10 l-34 0 22 -24z"/>
<path d="M10518 2113 c6 -2 18 -2 25 0 6 3 1 5 -13 5 -14 0 -19 -2 -12 -5z"/>
<path d="M10580 2110 c11 -7 1 -10 -35 -11 -27 -1 -54 0 -60 1 -5 1 -6 -2 -2
-6 10 -10 35 -15 72 -14 17 1 38 1 48 1 14 0 16 3 8 13 -6 7 -8 16 -4 19 3 4
-5 7 -18 7 -19 0 -21 -2 -9 -10z"/>
<path d="M10627 2101 c4 -15 13 -19 43 -18 23 1 42 8 48 18 9 14 3 16 -43 18
-49 2 -53 0 -48 -18z m63 5 c0 -11 -19 -15 -25 -6 -3 5 1 10 9 10 9 0 16 -2
16 -4z"/>
<path d="M10740 2116 c0 -2 8 -10 17 -17 9 -8 14 -9 10 -2 -4 7 0 13 10 16 11
3 8 5 -9 6 -16 0 -28 -1 -28 -3z"/>
<path d="M70 1920 l0 -190 69 -73 69 -72 184 0 183 0 6 -495 c3 -272 7 -575 8
-672 l1 -177 66 -55 65 -56 200 0 199 0 0 730 0 730 140 0 140 0 0 83 c0 45 3
125 6 177 l6 95 -48 64 c-27 36 -54 66 -60 68 -23 8 -38 -108 -35 -284 0 -48
-7 -53 -34 -23 -16 17 -19 41 -22 142 -2 67 -6 124 -8 127 -3 2 9 20 27 38
l32 33 -501 0 c-391 0 -503 -3 -507 -12 -5 -10 -7 -10 -12 0 -4 8 -32 12 -90
12 l-84 0 0 -190z m645 140 c3 -5 1 -10 -4 -10 -6 0 -11 5 -11 10 0 6 2 10 4
10 3 0 8 -4 11 -10z m-42 -7 c-7 -2 -19 -2 -25 0 -7 3 -2 5 12 5 14 0 19 -2
13 -5z m87 -3 c0 -5 -2 -10 -4 -10 -3 0 -8 5 -11 10 -3 6 -1 10 4 10 6 0 11
-4 11 -10z m40 6 c0 -3 -4 -8 -10 -11 -5 -3 -10 -1 -10 4 0 6 5 11 10 11 6 0
10 -2 10 -4z m188 -328 c7 -9 13 -184 17 -528 4 -283 8 -541 10 -572 2 -56 2
-56 -22 -47 -15 5 -22 5 -18 0 3 -5 1 -13 -5 -16 -7 -4 -7 -11 -2 -18 14 -18
11 -47 -5 -47 -11 0 -11 -6 2 -30 24 -47 37 -41 38 18 0 12 3 22 7 22 4 0 10
-31 14 -69 3 -39 13 -98 21 -133 21 -95 24 -118 16 -118 -5 0 -29 18 -55 41
-34 30 -46 48 -45 67 0 16 3 21 6 12 12 -31 43 -40 43 -11 0 22 -25 45 -40 36
-5 -3 -10 -4 -10 -1 0 2 -3 12 -7 21 -5 15 -3 16 15 6 30 -16 31 -15 29 21 -3
40 -15 61 -29 52 -6 -4 -8 -2 -4 4 3 5 2 12 -3 14 -5 1 -11 18 -14 36 -3 18
-1 30 4 26 5 -3 9 4 9 16 0 12 -3 19 -7 17 -5 -3 -9 6 -9 19 -1 13 3 24 8 24
7 0 7 5 0 13 -6 7 -12 30 -14 51 -1 20 -6 40 -11 43 -5 3 -4 9 2 12 12 8 14
28 9 119 -2 34 1 62 5 62 5 0 5 6 0 13 -12 19 -11 121 1 129 7 5 7 8 1 8 -7 0
-11 115 -12 350 -1 193 -5 360 -9 372 l-6 21 29 -21 c16 -12 35 -27 41 -34z
m-78 -1119 c-7 -11 -14 -18 -17 -15 -3 3 0 12 7 21 18 21 23 19 10 -6z m7 -91
c-3 -7 -5 -2 -5 12 0 14 2 19 5 13 2 -7 2 -19 0 -25z m73 -108 c0 -5 -4 -10
-10 -10 -5 0 -10 5 -10 10 0 6 5 10 10 10 6 0 10 -4 10 -10z m-10 -30 c0 -5
-2 -10 -4 -10 -3 0 -8 5 -11 10 -3 6 -1 10 4 10 6 0 11 -4 11 -10z"/>
<path d="M985 770 c-3 -5 -1 -10 4 -10 6 0 11 5 11 10 0 6 -2 10 -4 10 -3 0
-8 -4 -11 -10z"/>
<path d="M980 621 c0 -6 5 -13 10 -16 6 -3 10 1 10 9 0 9 -4 16 -10 16 -5 0
-10 -4 -10 -9z"/>
<path d="M5526 2094 c-14 -13 -16 -61 -16 -367 l0 -352 27 -99 c26 -92 30
-100 60 -112 25 -11 101 -14 318 -14 267 0 286 -1 283 -17 -3 -17 -26 -18
-278 -21 l-275 -3 -92 -201 -91 -201 13 -44 c8 -25 15 -46 17 -48 7 -7 62 -7
550 -6 l508 1 32 29 33 29 -4 394 c-3 424 -6 443 -57 467 -17 7 -119 11 -314
11 l-290 0 0 30 0 30 275 2 276 3 75 185 c70 174 74 189 71 250 -2 48 -5 59
-11 43 -5 -14 -17 -23 -29 -23 -15 0 -18 -3 -10 -11 13 -13 -26 -80 -43 -74
-7 2 -20 -14 -29 -36 -31 -67 -27 -36 5 41 16 40 30 74 30 76 0 2 -131 3 -291
3 -206 0 -300 4 -325 13 -26 9 -37 9 -46 0 -16 -16 -127 -15 -147 1 -11 9 -34
12 -70 9 -36 -3 -49 -7 -40 -13 9 -6 -6 -8 -41 -8 -30 0 -49 3 -42 6 6 2 9 9
6 15 -4 6 0 14 7 19 11 6 9 9 -8 9 -12 0 -29 -7 -37 -16z m208 -22 c2 -4 -10
-8 -27 -9 -30 -1 -30 -1 -7 7 14 4 26 8 27 9 1 1 4 -3 7 -7z m147 -334 c-3
-62 -11 -60 -11 2 0 29 3 50 7 46 4 -3 6 -25 4 -48z m-4 -160 c-3 -8 -6 -5 -6
6 -1 11 2 17 5 13 3 -3 4 -12 1 -19z m680 -76 c6 -4 14 -25 18 -47 l7 -40 -21
33 c-22 34 -23 34 -138 35 -29 0 -53 5 -53 9 0 5 -6 6 -12 1 -16 -9 -194 -13
-222 -4 -12 3 13 8 54 11 127 8 354 10 367 2z m-520 -8 c-3 -3 -12 -4 -19 -1
-8 3 -5 6 6 6 11 1 17 -2 13 -5z m-64 -11 c-7 -2 -21 -2 -30 0 -10 3 -4 5 12
5 17 0 24 -2 18 -5z m268 -150 c13 -16 12 -17 -3 -4 -10 7 -18 15 -18 17 0 8
8 3 21 -13z m-1 -73 l-8 -35 -1 45 c-1 27 3 40 8 35 6 -6 6 -25 1 -45z m337
-92 c-3 -8 -6 -5 -6 6 -1 11 2 17 5 13 3 -3 4 -12 1 -19z m-690 -103 c0 -13
-34 -14 -55 -1 -5 3 -12 2 -14 -4 -2 -7 -14 -7 -37 0 -22 6 -40 6 -53 -1 -10
-6 -27 -8 -36 -6 -12 3 -10 5 6 6 13 0 20 5 17 11 -4 7 25 10 83 9 65 -1 89
-4 89 -14z m183 -7 c0 -4 -4 -8 -9 -8 -6 0 -12 4 -15 8 -3 5 1 9 9 9 8 0 15
-4 15 -9z m95 2 c8 -13 -35 -13 -55 0 -11 7 -7 10 17 10 17 0 35 -4 38 -10z
m75 -6 c0 -2 -12 -4 -27 -4 -21 0 -24 3 -14 9 13 8 41 5 41 -5z m-629 -137
c-10 -9 -11 -8 -5 6 3 10 9 15 12 12 3 -3 0 -11 -7 -18z m39 -37 c0 -5 -2 -10
-4 -10 -3 0 -8 5 -11 10 -3 6 -1 10 4 10 6 0 11 -4 11 -10z m-64 -26 c-4 -9
-9 -15 -11 -12 -3 3 -3 13 1 22 4 9 9 15 11 12 3 -3 3 -13 -1 -22z m160 -30
c-4 -11 -2 -15 7 -11 7 2 22 -3 34 -13 l22 -17 -24 0 c-15 0 -22 4 -18 13 3 9
-2 11 -18 7 -13 -4 -18 -8 -11 -11 23 -7 12 -18 -17 -16 -26 2 -85 44 -62 44
6 0 13 -4 16 -10 10 -17 44 -11 57 10 15 24 22 26 14 4z m-190 -22 c-18 -16
-18 -16 -6 6 6 13 14 21 18 18 3 -4 -2 -14 -12 -24z m924 4 c-6 -9 -19 -12
-28 -8 -17 6 -14 7 37 21 2 1 -2 -5 -9 -13z m-204 -13 c-2 -3 -21 -8 -40 -13
-27 -6 -36 -5 -36 5 0 8 10 15 23 17 25 4 60 -2 53 -9z m104 13 c0 -2 -7 -9
-15 -16 -13 -11 -14 -10 -9 4 5 14 24 23 24 12z m-710 -21 c0 -2 -9 -3 -19 -2
-11 0 -18 5 -15 9 4 6 34 0 34 -7z m505 5 c3 -5 -3 -10 -14 -10 -12 0 -21 5
-21 10 0 6 6 10 14 10 8 0 18 -4 21 -10z"/>
<path d="M6700 1204 c0 -501 3 -939 6 -973 l7 -61 198 0 199 0 0 495 c0 465 1
495 18 493 9 -1 126 0 260 0 l242 2 0 209 0 208 -255 -5 -255 -5 0 22 0 21
304 0 303 0 7 46 c3 26 6 140 6 253 -1 161 -3 202 -12 186 -15 -25 -19 -186
-5 -202 6 -9 5 -18 -3 -28 -6 -8 -9 -23 -5 -35 4 -11 2 -20 -4 -20 -7 0 -11
43 -11 125 l0 125 -287 1 c-159 1 -373 1 -476 0 l-188 -1 -24 27 -24 28 -1
-911z m703 731 c-3 -8 -10 -15 -15 -15 -7 0 -6 5 1 13 6 8 7 18 3 22 -4 5 -2
5 5 1 7 -4 10 -13 6 -21z m-109 -10 c-4 -8 -11 -15 -16 -15 -6 0 -5 6 2 15 7
8 14 15 16 15 2 0 1 -7 -2 -15z m135 -36 c-9 -17 -8 -24 2 -31 11 -8 10 -9 -3
-5 -9 3 -18 1 -21 -6 -2 -6 -6 -4 -10 6 -4 11 1 25 13 37 26 26 34 25 19 -1z
m-513 -64 c-45 -40 -65 -46 -39 -11 10 13 21 22 24 20 4 -2 12 3 19 11 7 8 18
15 24 15 6 -1 -7 -16 -28 -35z m28 -22 c-3 -16 -9 -32 -15 -37 -5 -6 -9 -14
-9 -20 0 -5 7 -1 16 10 13 16 15 16 10 2 -4 -13 0 -18 17 -19 21 -1 21 -1 -3
-9 -17 -5 -19 -8 -7 -9 9 -1 17 -5 17 -11 0 -5 -7 -7 -15 -4 -8 4 -15 1 -15
-6 0 -6 4 -9 9 -6 5 4 11 0 14 -6 2 -7 12 5 22 27 9 22 19 34 22 27 7 -19 23
-4 22 21 0 21 -1 21 -9 2 -6 -14 -9 -15 -10 -5 0 12 -2 12 -11 -2 -14 -25 -42
-12 -28 13 5 11 14 17 18 15 4 -3 13 6 19 19 7 14 20 25 29 24 16 0 15 -2 -2
-9 -11 -5 -15 -9 -8 -9 21 -2 26 -41 8 -67 -9 -13 -20 -22 -25 -19 -5 3 -11 1
-14 -4 -4 -5 0 -11 8 -13 11 -2 7 -18 -17 -68 -28 -59 -44 -141 -24 -121 14
14 49 0 42 -17 -5 -12 -3 -13 10 -2 12 10 13 15 4 20 -9 6 -8 12 1 26 10 17
11 17 6 1 -4 -13 -1 -17 11 -15 10 2 18 -1 18 -7 0 -5 4 -16 9 -24 7 -11 5
-13 -7 -8 -9 3 -19 2 -22 -3 -3 -4 1 -10 7 -13 10 -3 10 -8 -1 -18 -9 -9 -11
-9 -7 -1 12 20 -8 13 -22 -8 -7 -11 -17 -20 -23 -20 -5 0 -7 6 -3 13 5 7 0 6
-11 -3 -17 -14 -17 -13 -11 10 6 23 6 24 -7 7 -14 -17 -15 -16 -20 2 -3 11 0
22 7 25 6 2 2 5 -9 5 -12 1 -27 -5 -34 -11 -11 -11 -13 -10 -8 4 4 13 1 16
-15 13 -12 -3 -27 0 -34 6 -7 6 -17 8 -23 5 -5 -4 -7 3 -3 16 3 14 2 19 -6 14
-7 -4 -12 -1 -12 8 0 10 6 13 18 9 15 -5 15 -4 -2 9 -15 12 -16 19 -8 35 9 16
8 20 -4 20 -9 0 -13 -6 -9 -16 3 -11 0 -10 -10 3 -8 11 -15 14 -15 8 0 -7 -4
-12 -10 -12 -5 0 -7 7 -4 15 4 9 11 15 18 14 21 -3 36 1 34 9 -8 24 55 121 75
115 7 -3 9 3 11 30 1 9 43 47 53 47 1 0 -1 -12 -3 -27z m144 -49 c-3 -14 -5
-12 -10 9 -3 19 -2 25 4 19 6 -6 8 -18 6 -28z m-341 -6 c-3 -7 -5 -2 -5 12 0
14 2 19 5 13 2 -7 2 -19 0 -25z m73 -1 c0 -2 -12 -14 -26 -28 l-27 -24 18 28
c14 22 35 36 35 24z m30 -7 c0 -5 -5 -10 -11 -10 -5 0 -7 5 -4 10 3 6 8 10 11
10 2 0 4 -4 4 -10z m-40 -59 c-13 -25 -43 -29 -33 -5 4 12 8 12 13 4 5 -9 10
-6 15 9 4 13 9 20 12 18 2 -3 0 -15 -7 -26z m230 -46 c-7 -8 -22 -14 -34 -14
-20 1 -20 2 -1 6 11 3 24 9 30 14 15 14 19 10 5 -6z m-23 -52 c-8 -16 -16 -33
-18 -40 -2 -7 -9 -9 -16 -5 -9 5 -5 17 13 40 31 39 39 41 21 5z m25 -5 c-7 -7
-12 -8 -12 -2 0 14 12 26 19 19 2 -3 -1 -11 -7 -17z m118 -26 c0 -13 47 -16
255 -16 l191 1 -5 -36 c-4 -26 -6 -30 -9 -13 -3 18 -10 22 -40 23 -68 2 -94
-3 -129 -22 -19 -11 -32 -15 -28 -9 18 30 -14 36 -170 33 -118 -1 -155 1 -152
10 8 24 87 50 87 29z m-5 -70 c-3 -3 -11 0 -18 7 -9 10 -8 11 6 5 10 -3 15 -9
12 -12z m223 11 c-10 -2 -26 -2 -35 0 -10 3 -2 5 17 5 19 0 27 -2 18 -5z
m-577 -36 c-10 -9 -11 -8 -5 6 3 10 9 15 12 12 3 -3 0 -11 -7 -18z m16 -19
c-32 -46 -47 -61 -52 -56 -3 3 1 13 10 22 9 9 13 21 9 27 -4 8 -3 9 4 5 6 -4
17 2 24 13 7 11 14 18 16 16 3 -2 -2 -15 -11 -27z m571 11 c-10 -5 -15 -16
-12 -24 9 -23 -4 -18 -17 6 -7 13 -7 19 -1 15 6 -3 13 -2 17 4 3 5 12 10 18
10 7 0 4 -5 -5 -11z m-218 -46 c0 -7 -5 -13 -11 -13 -6 0 -9 6 -6 14 3 8 -1
20 -9 26 -11 10 -14 10 -14 0 0 -8 -3 -11 -6 -7 -3 3 -3 11 1 17 8 14 45 -16
45 -37z m427 15 c-3 -7 -5 -2 -5 12 0 14 2 19 5 13 2 -7 2 -19 0 -25z m-559 4
c2 -6 -6 -10 -16 -9 -12 1 -18 6 -15 14 6 16 25 13 31 -5z m62 -2 c0 -5 -5
-10 -11 -10 -5 0 -7 5 -4 10 3 6 8 10 11 10 2 0 4 -4 4 -10z m-270 -14 c0 -3
-4 -8 -10 -11 -5 -3 -10 -1 -10 4 0 6 5 11 10 11 6 0 10 -2 10 -4z m306 -8 c5
-7 3 -8 -5 -4 -7 5 -18 0 -26 -10 -8 -11 -15 -14 -15 -8 0 11 20 34 31 34 4 0
11 -5 15 -12z m-375 -51 c-10 -9 -11 -8 -5 6 3 10 9 15 12 12 3 -3 0 -11 -7
-18z m619 3 c0 -5 -5 -10 -11 -10 -5 0 -7 5 -4 10 3 6 8 10 11 10 2 0 4 -4 4
-10z m-313 -162 c-3 -8 -6 -5 -6 6 -1 11 2 17 5 13 3 -3 4 -12 1 -19z m-35 -5
c-6 -2 -9 -9 -6 -14 7 -12 -14 -39 -30 -39 -6 0 -3 7 6 14 10 7 15 16 12 19
-9 8 5 27 19 26 9 0 8 -2 -1 -6z m28 -23 c0 -5 -4 -10 -10 -10 -5 0 -10 5 -10
10 0 6 5 10 10 10 6 0 10 -4 10 -10z m-286 -62 c0 -30 -5 -53 -12 -56 -7 -2
-12 1 -12 7 0 6 3 11 8 11 4 0 6 20 4 45 -2 25 0 45 5 45 4 0 8 -23 7 -52z
m46 48 c0 -2 -7 -9 -15 -16 -13 -11 -14 -10 -9 4 5 14 24 23 24 12z m55 -26
c-3 -5 -11 -10 -16 -10 -6 0 -7 5 -4 10 3 6 11 10 16 10 6 0 7 -4 4 -10z m157
-19 c-4 -9 -7 -11 -9 -4 -3 7 -11 9 -19 6 -8 -3 -14 0 -14 6 0 6 11 10 24 9
17 -2 22 -7 18 -17z m-232 -7 c0 -8 -5 -12 -10 -9 -6 4 -8 11 -5 16 9 14 15
11 15 -7z m183 -61 c-7 -19 -21 -16 -19 5 0 9 -5 16 -12 14 -8 -1 -11 2 -7 8
9 14 44 -10 38 -27z m86 -70 c1 -77 -2 -109 -11 -114 -9 -6 -10 -9 -1 -9 9 0
12 -33 12 -120 0 -71 -4 -120 -9 -120 -6 0 -10 -7 -10 -16 0 -8 5 -12 10 -9 6
4 10 -39 9 -122 0 -70 -3 -122 -6 -116 -3 10 -12 9 -39 -2 -19 -8 -34 -10 -34
-5 0 4 6 11 13 13 6 3 2 6 -10 6 -13 1 -23 -3 -23 -9 0 -5 -8 -10 -17 -10 -15
0 -16 2 -3 10 16 11 7 12 -78 12 -23 0 -40 4 -37 8 3 5 1 11 -5 15 -5 3 -15
-5 -22 -19 -8 -19 -19 -26 -40 -26 -25 0 -28 3 -28 35 0 28 4 35 16 33 10 -2
19 2 21 9 3 8 -3 11 -17 8 -17 -3 -20 -1 -15 13 12 29 13 46 4 70 -5 13 -5 22
1 22 6 0 10 -4 10 -10 0 -5 12 -10 26 -10 15 0 23 4 19 11 -4 6 -13 8 -20 5
-18 -7 -25 24 -29 133 -5 110 0 134 20 95 8 -14 11 -31 7 -38 -4 -6 -8 -33 -9
-60 -1 -44 0 -47 12 -31 7 10 11 22 8 26 -3 5 2 9 11 9 12 0 15 -5 11 -16 -4
-11 2 -8 19 7 28 27 35 51 7 26 -16 -15 -21 -15 -38 -2 -21 16 -21 16 21 20
45 4 47 4 40 15 -4 6 -11 8 -16 5 -5 -4 -7 4 -5 17 3 13 5 26 5 29 1 4 10 9
20 12 15 4 18 1 14 -12 -8 -21 1 -12 16 16 10 20 9 21 -13 17 -14 -2 -28 1
-32 7 -4 7 -3 9 3 6 6 -4 19 14 29 41 11 26 21 51 23 56 2 5 -2 5 -8 1 -7 -4
-16 -18 -21 -31 -5 -13 -17 -24 -27 -24 -16 0 -16 -1 1 -13 16 -12 16 -13 -4
-14 -18 -2 -21 2 -16 22 4 16 1 27 -9 33 -16 8 -11 42 6 42 4 0 5 -8 2 -17 -6
-15 -4 -16 9 -5 9 7 18 9 20 3 3 -10 40 20 73 59 15 19 16 21 3 11 -16 -12
-18 -11 -18 8 0 22 -14 28 -25 10 -4 -6 1 -17 11 -24 17 -13 17 -14 3 -15 -21
0 -33 28 -19 45 5 6 7 15 4 18 -3 3 1 16 10 29 l16 22 0 -29 c0 -21 3 -26 11
-18 6 6 19 8 30 6 15 -4 17 -11 12 -32 -3 -14 -11 -30 -17 -34 -7 -6 -4 -7 7
-3 20 6 22 -4 5 -24 -7 -8 -1 -4 15 9 15 14 27 21 27 16 0 -5 5 -4 10 1 14 14
23 87 10 79 -5 -3 -10 -1 -10 4 0 6 7 11 16 11 9 0 12 5 8 12 -4 7 -3 8 4 4 7
-4 12 -2 12 3 0 6 2 11 4 11 2 0 4 -48 5 -107z m-303 50 c-2 -9 -8 -19 -14
-21 -14 -4 -15 0 -6 22 8 21 23 20 20 -1z m264 -23 c0 -4 -11 -15 -25 -24 -23
-15 -25 -15 -25 -1 0 9 4 14 8 11 4 -2 14 -1 22 4 12 7 12 11 -1 27 -13 16
-13 17 4 4 9 -7 17 -17 17 -21z m-254 -32 c-6 -65 -5 -63 -20 -43 -14 19 -12
39 7 63 14 18 16 15 13 -20z m89 2 c3 -5 1 -10 -4 -10 -6 0 -11 5 -11 10 0 6
2 10 4 10 3 0 8 -4 11 -10z m-53 -32 c-7 -7 -12 -8 -12 -2 0 14 12 26 19 19 2
-3 -1 -11 -7 -17z m-37 -54 c-8 -9 -13 -24 -11 -33 6 -19 -9 -48 -17 -34 -10
16 15 83 30 83 12 0 11 -3 -2 -16z m20 -114 c3 -5 1 -10 -4 -10 -6 0 -11 5
-11 10 0 6 2 10 4 10 3 0 8 -4 11 -10z"/>
<path d="M6877 1733 c-4 -3 -7 -13 -7 -22 1 -13 3 -13 11 2 11 19 8 33 -4 20z"/>
<path d="M6979 1673 c-13 -16 -12 -17 4 -4 16 13 21 21 13 21 -2 0 -10 -8 -17
-17z"/>
<path d="M6935 1670 c-3 -5 -13 -7 -23 -4 -13 5 -14 4 -3 -4 15 -11 51 -4 51
9 0 12 -17 11 -25 -1z"/>
<path d="M6820 1649 c0 -5 5 -7 10 -4 6 3 10 8 10 11 0 2 -4 4 -10 4 -5 0 -10
-5 -10 -11z"/>
<path d="M6836 1614 c-4 -9 -4 -19 -1 -22 2 -3 7 3 11 12 4 9 4 19 1 22 -2 3
-7 -3 -11 -12z"/>
<path d="M6861 1606 c-8 -14 -12 -29 -8 -32 7 -7 29 34 25 47 -2 6 -10 -1 -17
-15z"/>
<path d="M6887 1604 c-11 -12 -8 -26 5 -18 8 5 9 2 5 -9 -3 -10 -2 -17 3 -17
6 0 10 2 10 4 0 2 3 12 7 22 4 11 3 15 -4 11 -6 -4 -13 -2 -15 4 -2 5 -7 7
-11 3z"/>
<path d="M6830 1526 c0 -2 8 -10 18 -17 15 -13 16 -12 3 4 -13 16 -21 21 -21
13z"/>
<path d="M6977 1503 c-4 -3 -7 -11 -7 -17 0 -6 5 -5 12 2 6 6 9 14 7 17 -3 3
-9 2 -12 -2z"/>
<path d="M7050 941 c0 -7 -5 -9 -12 -5 -7 5 -8 3 -3 -5 5 -9 10 -10 18 -2 6 6
8 14 4 18 -4 3 -7 1 -7 -6z"/>
<path d="M6980 901 c0 -5 5 -13 10 -16 6 -3 10 -2 10 4 0 5 -4 13 -10 16 -5 3
-10 2 -10 -4z"/>
<path d="M6922 867 c-17 -18 -19 -24 -7 -24 8 0 13 2 10 5 -8 8 25 33 35 27 5
-3 10 -1 10 4 0 19 -26 12 -48 -12z"/>
<path d="M6850 859 c0 -5 5 -7 10 -4 6 3 10 8 10 11 0 2 -4 4 -10 4 -5 0 -10
-5 -10 -11z"/>
<path d="M6949 817 c-28 -27 -33 -44 -14 -44 7 0 11 7 7 15 -3 9 -1 13 4 9 5
-3 14 6 21 19 14 30 12 30 -18 1z"/>
<path d="M6928 742 c-16 -9 -28 -20 -28 -25 0 -4 5 -5 10 -2 6 3 10 2 10 -3 0
-6 7 -12 15 -16 16 -6 16 14 0 26 -6 4 -2 13 10 22 27 21 16 19 -17 -2z"/>
<path d="M6875 713 c3 -12 -1 -36 -9 -52 -27 -52 -13 -69 27 -33 19 17 20 17
3 -15 -9 -18 -13 -33 -9 -33 5 0 1 -5 -7 -10 -13 -8 -12 -10 4 -10 12 0 16 5
12 15 -3 8 -2 15 3 15 4 0 8 6 8 13 0 6 2 17 3 22 5 22 -1 46 -10 40 -5 -3
-10 -1 -10 4 0 6 7 11 15 11 8 0 15 5 15 10 0 6 -7 10 -15 10 -7 0 -19 8 -25
18 -10 15 -10 14 -5 -5z m5 -83 c0 -5 -4 -10 -10 -10 -5 0 -10 5 -10 10 0 6 5
10 10 10 6 0 10 -4 10 -10z"/>
<path d="M7037 709 c7 -7 15 -10 18 -7 3 3 -2 9 -12 12 -14 6 -15 5 -6 -5z"/>
<path d="M7045 620 c-3 -5 -1 -10 4 -10 6 0 11 5 11 10 0 6 -2 10 -4 10 -3 0
-8 -4 -11 -10z"/>
<path d="M6830 609 c0 -6 -6 -9 -14 -6 -8 3 -20 -2 -28 -11 -9 -11 -10 -14 0
-8 7 4 12 2 12 -4 0 -6 5 -8 13 -3 6 4 19 6 29 5 25 -4 29 12 7 26 -13 9 -19
9 -19 1z"/>
<path d="M6927 606 c-4 -10 -1 -13 8 -9 8 3 12 9 9 14 -7 12 -11 11 -17 -5z"/>
<path d="M6895 509 c-4 -6 -5 -12 -2 -15 2 -3 7 2 10 11 7 17 1 20 -8 4z"/>
<path d="M6775 480 c-7 -11 2 -30 14 -30 5 0 11 9 14 20 5 21 -16 29 -28 10z"/>
<path d="M6871 457 c-13 -21 -12 -21 5 -5 10 10 16 20 13 22 -3 3 -11 -5 -18
-17z"/>
<path d="M6815 460 c-8 -13 5 -13 25 0 13 8 13 10 -2 10 -9 0 -20 -4 -23 -10z"/>
<path d="M6761 446 c2 -2 15 -9 29 -15 24 -11 24 -11 6 3 -16 13 -49 24 -35
12z"/>
<path d="M7814 2089 c-18 -20 -19 -49 -22 -687 -3 -600 -2 -670 13 -709 29
-75 16 -73 524 -73 247 0 457 3 466 6 22 9 51 69 75 158 19 72 20 104 20 649
0 580 -2 620 -37 657 -12 13 -13 9 -7 -30 l7 -45 -19 22 c-18 22 -25 23 -206
24 -103 0 -190 4 -193 8 -2 5 -27 4 -56 -1 -37 -7 -54 -6 -65 3 -11 9 -18 9
-26 1 -8 -8 -77 -12 -225 -12 l-213 0 0 -32 c0 -17 -3 -29 -6 -26 -3 3 -5 29
-6 57 0 28 -1 51 -2 51 -2 0 -11 -9 -22 -21z m1043 -126 c-3 -10 -5 -2 -5 17
0 19 2 27 5 18 2 -10 2 -26 0 -35z m-1010 5 c-3 -8 -6 -5 -6 6 -1 11 2 17 5
13 3 -3 4 -12 1 -19z m874 -165 c12 -16 12 -17 -1 -7 -8 6 -22 14 -30 17 -13
5 -12 6 1 6 9 1 23 -7 30 -16z m-189 -38 c4 -17 1 -25 -8 -25 -14 0 -19 31 -7
43 9 10 10 9 15 -18z m108 13 c0 -4 -4 -8 -9 -8 -6 0 -12 4 -15 8 -3 5 1 9 9
9 8 0 15 -4 15 -9z m148 -16 c2 -7 -1 -12 -6 -12 -18 0 -42 12 -42 21 0 13 43
4 48 -9z m-614 -119 c-5 -96 -14 -90 -14 8 0 50 4 79 9 71 4 -8 7 -43 5 -79z
m338 55 c-7 -7 -10 -5 -7 8 5 29 6 30 12 16 3 -8 1 -18 -5 -24z m24 -33 c1
-14 -2 -25 -7 -25 -10 0 -12 33 -2 43 3 4 7 7 7 7 1 0 2 -11 2 -25z m-663 -20
c-3 -9 -8 -14 -10 -11 -3 3 -2 9 2 15 9 16 15 13 8 -4z m-22 -89 c0 -46 3 -66
12 -66 9 0 9 -2 1 -8 -7 -4 -14 -18 -17 -32 -2 -14 -5 22 -6 79 0 57 2 102 5
98 3 -3 6 -35 5 -71z m689 26 l0 -37 -15 28 c-8 15 -12 34 -9 42 10 25 24 6
24 -33z m-90 -222 c0 -229 0 -231 -22 -239 -12 -4 -37 -5 -55 -1 -18 5 -35 5
-38 0 -2 -4 -25 -6 -51 -4 -31 2 -51 -1 -61 -12 -9 -8 -14 -16 -12 -18 2 -2
32 0 67 3 35 4 66 3 69 -1 4 -8 128 -2 142 6 8 5 46 -22 40 -29 -3 -2 -75 -6
-160 -9 -84 -2 -155 -4 -157 -5 -2 -1 0 -6 4 -13 5 -8 0 -9 -14 -6 -18 5 -22
2 -22 -15 0 -12 4 -17 8 -12 4 6 14 11 22 10 11 0 15 -12 15 -43 0 -27 5 -46
15 -52 13 -8 13 -10 -2 -10 -9 0 -18 5 -20 11 -3 8 -10 6 -21 -5 -15 -16 -17
-16 -17 -1 0 8 6 18 14 21 8 3 13 14 11 25 -2 10 0 19 6 19 5 0 9 5 9 10 0 19
-17 10 -28 -15 -11 -23 -30 -29 -42 -13 -3 4 -11 -2 -19 -13 -7 -13 -8 -18 -1
-14 7 4 9 -2 6 -19 -3 -14 0 -28 5 -31 5 -4 9 -2 9 4 0 7 8 7 25 1 16 -6 25
-6 25 0 0 6 4 10 9 10 5 0 7 -9 4 -20 -3 -11 -9 -17 -14 -14 -5 3 -9 3 -9 0 0
-2 -3 -11 -6 -20 -5 -12 0 -16 17 -15 23 0 23 1 4 9 -14 6 -16 9 -5 10 8 2 18
2 23 1 4 0 7 3 7 9 0 5 7 10 16 10 8 0 13 4 10 8 -2 4 -1 14 5 22 7 12 9 10 9
-7 0 -13 -9 -32 -20 -43 -24 -24 -26 -45 -4 -36 8 3 12 2 9 -4 -9 -14 19 -12
34 3 11 10 13 10 7 0 -4 -7 -2 -13 3 -13 6 0 11 8 11 18 1 16 2 16 13 0 7 -9
26 -18 42 -21 17 -2 -24 -5 -90 -6 -83 -1 -125 3 -133 11 -9 9 -12 9 -12 -3 0
-13 -18 -15 -117 -12 -158 4 -163 8 -164 116 0 45 -2 107 -4 137 -2 30 -1 63
1 73 8 27 22 20 18 -10 -1 -15 3 -34 9 -42 7 -8 8 -12 2 -9 -12 7 -14 -91 -2
-109 5 -8 4 -13 -2 -13 -7 0 -7 -8 -2 -22 4 -13 6 -40 4 -60 -3 -22 0 -38 6
-38 6 0 8 7 5 15 -4 8 -1 15 4 15 6 0 12 7 14 17 3 15 4 15 17 -1 11 -13 11
-16 1 -14 -7 2 -14 -2 -17 -8 -4 -12 27 -26 65 -29 18 -2 22 2 19 16 -6 21 9
26 16 7 2 -7 4 2 4 20 0 26 -4 32 -16 27 -13 -5 -14 -4 -3 6 17 18 15 30 -5
27 -12 -2 -17 2 -14 12 1 8 4 25 5 37 0 13 6 23 11 23 6 0 4 4 -4 9 -17 11 -6
67 17 82 11 6 12 9 3 6 -8 -2 -19 -12 -25 -22 -6 -11 -17 -26 -25 -35 -13 -13
-14 -13 -8 3 7 18 -8 24 -16 7 -3 -6 -4 -5 -3 2 2 7 11 12 20 12 22 -2 21 23
-1 29 -10 2 -8 3 5 2 16 -2 22 2 18 12 -3 8 -2 12 2 9 5 -3 15 4 22 15 8 10
21 19 28 19 10 0 13 8 10 24 -4 19 -1 23 11 18 12 -4 11 0 -4 18 -11 13 -14
20 -7 16 8 -5 12 0 12 13 0 12 5 21 11 21 5 0 7 5 3 12 -4 7 -3 8 4 4 9 -5 9
-13 2 -26 -7 -13 -5 -26 5 -47 10 -19 15 -22 15 -10 0 9 6 17 13 17 7 1 4 6
-7 15 -10 7 -15 18 -11 24 10 17 22 13 28 -9 3 -11 10 -20 16 -20 9 0 8 6 0
23 -7 12 -13 24 -13 27 -1 3 -5 4 -11 2 -5 -2 -4 2 2 9 15 15 22 10 28 -21 3
-13 10 -27 16 -30 14 -9 14 -21 -1 -30 -8 -5 -7 -9 5 -14 14 -5 16 5 15 87 -2
136 1 177 9 149 3 -13 6 -91 6 -173 0 -82 1 -149 4 -149 2 0 10 8 17 18 10 13
13 73 14 255 l0 237 120 0 120 0 0 -230z m-283 133 c-2 -16 -4 -5 -4 22 0 28
2 40 4 28 2 -13 2 -35 0 -50z m-132 -63 c-3 -5 2 -10 11 -10 10 0 15 -3 11 -6
-10 -10 -39 5 -32 16 3 5 8 10 11 10 3 0 2 -4 -1 -10z m-22 -45 c-3 -9 -8 -14
-10 -11 -3 3 -2 9 2 15 9 16 15 13 8 -4z m51 -6 c-8 -13 -21 -11 -27 5 -4 10
0 12 14 9 10 -3 16 -9 13 -14z m-201 -65 c2 -21 0 -47 -5 -56 -5 -10 -5 -18 0
-18 4 0 6 -17 4 -37 -4 -37 -3 -37 12 -18 16 19 16 18 1 -12 -8 -18 -18 -33
-21 -33 -3 0 -3 4 1 9 3 5 1 12 -5 16 -11 7 -14 135 -4 173 9 30 13 24 17 -24z
m47 -279 c0 -8 -4 -15 -10 -15 -5 0 -7 7 -4 15 4 8 8 15 10 15 2 0 4 -7 4 -15z
m410 -65 c0 -5 -5 -10 -11 -10 -5 0 -7 5 -4 10 3 6 8 10 11 10 2 0 4 -4 4 -10z
m-390 -26 c0 -3 -4 -2 -10 1 -5 3 -10 2 -10 -2 0 -5 9 -14 20 -21 11 -7 20
-16 20 -22 0 -5 -11 1 -25 14 -14 13 -25 29 -25 35 0 7 -5 9 -12 5 -7 -4 -8
-3 -4 4 5 9 13 9 27 2 10 -6 19 -13 19 -16z m-23 -40 c-3 -3 -12 -4 -19 -1 -8
3 -5 6 6 6 11 1 17 -2 13 -5z m653 -95 c0 -10 -27 -19 -56 -19 -15 0 -22 5
-19 13 5 13 75 19 75 6z m-95 -9 c8 -13 -25 -13 -45 0 -12 8 -9 10 12 10 15 0
30 -4 33 -10z m180 0 c3 -5 -1 -10 -10 -10 -9 0 -13 5 -10 10 3 6 8 10 10 10
2 0 7 -4 10 -10z"/>
<path d="M8046 1133 c-4 -9 -4 -14 0 -10 4 4 14 1 23 -6 14 -11 15 -10 1 8 -8
11 -15 21 -16 23 -1 2 -5 -5 -8 -15z"/>
<path d="M8138 1143 c7 -3 16 -2 19 1 4 3 -2 6 -13 5 -11 0 -14 -3 -6 -6z"/>
<path d="M8080 1090 c0 -5 -7 -7 -15 -4 -8 4 -15 4 -15 1 0 -13 30 -14 40 -1
9 10 9 14 1 14 -6 0 -11 -4 -11 -10z"/>
<path d="M8160 980 c0 -5 5 -10 11 -10 5 0 7 5 4 10 -3 6 -8 10 -11 10 -2 0
-4 -4 -4 -10z"/>
<path d="M8040 959 c0 -5 4 -8 9 -5 5 3 11 -1 15 -9 3 -8 11 -15 17 -15 7 0 5
8 -6 20 -20 22 -35 26 -35 9z"/>
<path d="M7976 923 c-6 -14 -5 -15 5 -6 7 7 10 15 7 18 -3 3 -9 -2 -12 -12z"/>
<path d="M8040 890 c-9 -6 -10 -10 -3 -10 6 0 15 5 18 10 8 12 4 12 -15 0z"/>
<path d="M8116 872 c-3 -5 1 -9 9 -9 8 0 12 4 9 9 -3 4 -7 8 -9 8 -2 0 -6 -4
-9 -8z"/>
<path d="M8160 870 c0 -5 5 -10 11 -10 5 0 7 5 4 10 -3 6 -8 10 -11 10 -2 0
-4 -4 -4 -10z"/>
<path d="M8047 859 c7 -7 15 -10 18 -7 3 3 -2 9 -12 12 -14 6 -15 5 -6 -5z"/>
<path d="M8308 2098 c9 -9 15 -9 24 0 9 9 7 12 -12 12 -19 0 -21 -3 -12 -12z"/>
<path d="M8992 2080 c0 -19 2 -27 5 -17 2 9 2 25 0 35 -3 9 -5 1 -5 -18z"/>
<path d="M10352 2035 c0 -16 2 -22 5 -12 2 9 2 23 0 30 -3 6 -5 -1 -5 -18z"/>
<path d="M10323 2005 c0 -27 2 -38 4 -22 2 15 2 37 0 50 -2 12 -4 0 -4 -28z"/>
<path d="M3790 1755 c0 -5 5 -17 10 -25 5 -8 10 -10 10 -5 0 6 -5 17 -10 25
-5 8 -10 11 -10 5z"/>
<path d="M13388 1703 c5 -21 7 -23 10 -9 2 10 0 22 -6 28 -6 6 -7 0 -4 -19z"/>
<path d="M13378 1613 c-3 -10 -1 -28 4 -40 4 -13 5 -30 2 -38 -4 -8 -2 -15 4
-15 5 0 8 22 6 50 -2 30 1 48 7 45 5 -4 9 -1 9 4 0 18 -28 12 -32 -6z"/>
<path d="M10340 1585 c0 -8 4 -15 10 -15 5 0 7 7 4 15 -4 8 -8 15 -10 15 -2 0
-4 -7 -4 -15z"/>
<path d="M2662 1528 c7 -15 15 -23 17 -17 2 6 -4 18 -13 27 -15 15 -15 15 -4
-10z"/>
<path d="M10350 1526 c0 -22 3 -27 11 -19 8 8 8 16 0 30 -9 16 -10 14 -11 -11z"/>
<path d="M13376 1501 c-4 -7 -5 -15 -2 -18 9 -9 19 4 14 18 -4 11 -6 11 -12 0z"/>
<path d="M2667 1429 c7 -7 15 -10 18 -7 3 3 -2 9 -12 12 -14 6 -15 5 -6 -5z"/>
<path d="M13390 1331 c0 -7 -4 -9 -10 -6 -5 3 -10 1 -10 -4 0 -6 4 -11 9 -11
13 0 25 20 17 27 -3 4 -6 1 -6 -6z"/>
<path d="M4010 1315 c0 -5 5 -17 10 -25 5 -8 10 -10 10 -5 0 6 -5 17 -10 25
-5 8 -10 11 -10 5z"/>
<path d="M2456 1197 c3 -10 9 -15 12 -12 3 3 0 11 -7 18 -10 9 -11 8 -5 -6z"/>
<path d="M12230 1179 c0 -5 5 -7 10 -4 6 3 10 8 10 11 0 2 -4 4 -10 4 -5 0
-10 -5 -10 -11z"/>
<path d="M13385 1120 c-3 -5 -1 -10 4 -10 6 0 11 5 11 10 0 6 -2 10 -4 10 -3
0 -8 -4 -11 -10z"/>
<path d="M12230 988 c0 -9 5 -20 10 -23 13 -8 13 5 0 25 -8 13 -10 13 -10 -2z"/>
</g>
</svg>
